<svg width="501" height="468" viewBox="0 0 501 468" fill="none" xmlns="http://www.w3.org/2000/svg">
<g clip-path="url(#clip0_10_10)">
<rect width="501" height="468" rx="234" fill="white"/>
<ellipse cx="250.5" cy="234" rx="250.5" ry="234" fill="black"/>
<path d="M80.8072 217.818V244H75.2717V217.818H80.8072ZM90.7053 232.648V244H85.2592V224.364H90.4496V227.828H90.6797C91.1143 226.686 91.843 225.783 92.8658 225.118C93.8885 224.445 95.1286 224.108 96.5859 224.108C97.9496 224.108 99.1385 224.406 100.153 225.003C101.167 225.599 101.955 226.452 102.518 227.56C103.08 228.659 103.362 229.972 103.362 231.497V244H97.9155V232.469C97.924 231.267 97.6172 230.33 96.995 229.656C96.3729 228.974 95.5163 228.634 94.4254 228.634C93.6925 228.634 93.0447 228.791 92.4822 229.107C91.9283 229.422 91.4936 229.882 91.1783 230.487C90.8714 231.084 90.7138 231.804 90.7053 232.648ZM114.89 244.32C113.398 244.32 112.047 243.936 110.837 243.169C109.635 242.393 108.681 241.256 107.973 239.756C107.275 238.247 106.925 236.398 106.925 234.207C106.925 231.957 107.287 230.087 108.012 228.595C108.736 227.095 109.699 225.974 110.901 225.233C112.111 224.483 113.436 224.108 114.877 224.108C115.976 224.108 116.892 224.295 117.625 224.67C118.367 225.037 118.963 225.497 119.415 226.051C119.875 226.597 120.225 227.134 120.463 227.662H120.63V217.818H126.063V244H120.694V240.855H120.463C120.208 241.401 119.846 241.942 119.377 242.479C118.917 243.007 118.316 243.446 117.574 243.795C116.841 244.145 115.946 244.32 114.89 244.32ZM116.615 239.986C117.493 239.986 118.235 239.747 118.84 239.27C119.453 238.784 119.922 238.107 120.246 237.237C120.578 236.368 120.745 235.349 120.745 234.182C120.745 233.014 120.583 232 120.259 231.139C119.935 230.278 119.466 229.614 118.853 229.145C118.239 228.676 117.493 228.442 116.615 228.442C115.721 228.442 114.966 228.685 114.353 229.17C113.739 229.656 113.275 230.33 112.959 231.19C112.644 232.051 112.486 233.048 112.486 234.182C112.486 235.324 112.644 236.334 112.959 237.212C113.283 238.081 113.748 238.763 114.353 239.257C114.966 239.743 115.721 239.986 116.615 239.986ZM143.133 235.639V224.364H148.579V244H143.35V240.433H143.146C142.702 241.584 141.965 242.509 140.934 243.207C139.911 243.906 138.663 244.256 137.188 244.256C135.876 244.256 134.721 243.957 133.724 243.361C132.727 242.764 131.947 241.916 131.384 240.817C130.83 239.717 130.549 238.401 130.54 236.866V224.364H135.987V235.895C135.995 237.054 136.306 237.97 136.92 238.643C137.533 239.317 138.356 239.653 139.387 239.653C140.043 239.653 140.657 239.504 141.228 239.206C141.799 238.899 142.259 238.447 142.609 237.851C142.967 237.254 143.141 236.517 143.133 235.639ZM169.273 229.963L164.287 230.27C164.202 229.844 164.019 229.46 163.738 229.119C163.456 228.77 163.086 228.493 162.625 228.288C162.174 228.075 161.632 227.969 161.002 227.969C160.158 227.969 159.446 228.148 158.867 228.506C158.287 228.855 157.998 229.324 157.998 229.912C157.998 230.381 158.185 230.777 158.56 231.101C158.935 231.425 159.578 231.685 160.49 231.881L164.044 232.597C165.953 232.989 167.377 233.619 168.314 234.489C169.252 235.358 169.721 236.5 169.721 237.915C169.721 239.202 169.341 240.331 168.583 241.303C167.833 242.274 166.801 243.033 165.489 243.578C164.185 244.115 162.681 244.384 160.976 244.384C158.377 244.384 156.306 243.842 154.763 242.76C153.229 241.669 152.33 240.186 152.066 238.311L157.422 238.03C157.584 238.822 157.976 239.428 158.598 239.845C159.221 240.254 160.017 240.459 160.989 240.459C161.944 240.459 162.711 240.276 163.29 239.909C163.878 239.534 164.176 239.053 164.185 238.464C164.176 237.97 163.968 237.565 163.559 237.25C163.15 236.926 162.519 236.679 161.667 236.509L158.266 235.831C156.348 235.447 154.921 234.783 153.983 233.837C153.054 232.891 152.59 231.685 152.59 230.219C152.59 228.957 152.931 227.871 153.613 226.959C154.303 226.047 155.27 225.344 156.515 224.849C157.767 224.355 159.233 224.108 160.912 224.108C163.392 224.108 165.344 224.632 166.767 225.68C168.199 226.729 169.034 228.156 169.273 229.963ZM183.594 224.364V228.455H171.769V224.364H183.594ZM174.454 219.659H179.9V237.966C179.9 238.469 179.977 238.861 180.13 239.142C180.283 239.415 180.496 239.607 180.769 239.717C181.05 239.828 181.374 239.884 181.741 239.884C181.996 239.884 182.252 239.862 182.508 239.82C182.763 239.768 182.96 239.73 183.096 239.705L183.952 243.757C183.68 243.842 183.296 243.94 182.802 244.051C182.308 244.17 181.707 244.243 180.999 244.268C179.687 244.32 178.536 244.145 177.548 243.744C176.567 243.344 175.805 242.722 175.259 241.878C174.714 241.034 174.445 239.969 174.454 238.682V219.659ZM187.142 244V224.364H192.422V227.79H192.626C192.984 226.571 193.585 225.651 194.429 225.028C195.273 224.398 196.244 224.082 197.344 224.082C197.616 224.082 197.911 224.099 198.226 224.134C198.541 224.168 198.818 224.214 199.057 224.274V229.107C198.801 229.03 198.447 228.962 197.996 228.902C197.544 228.842 197.131 228.812 196.756 228.812C195.955 228.812 195.239 228.987 194.608 229.337C193.986 229.678 193.491 230.155 193.125 230.768C192.767 231.382 192.588 232.089 192.588 232.891V244H187.142ZM201.873 244V224.364H207.319V244H201.873ZM204.608 221.832C203.799 221.832 203.104 221.564 202.525 221.027C201.953 220.482 201.668 219.83 201.668 219.071C201.668 218.321 201.953 217.678 202.525 217.141C203.104 216.595 203.799 216.322 204.608 216.322C205.418 216.322 206.108 216.595 206.679 217.141C207.259 217.678 207.549 218.321 207.549 219.071C207.549 219.83 207.259 220.482 206.679 221.027C206.108 221.564 205.418 221.832 204.608 221.832ZM217.281 244.371C216.028 244.371 214.911 244.153 213.931 243.719C212.951 243.276 212.175 242.624 211.604 241.763C211.042 240.893 210.761 239.811 210.761 238.516C210.761 237.425 210.961 236.509 211.362 235.767C211.762 235.026 212.308 234.429 212.998 233.977C213.688 233.526 214.472 233.185 215.35 232.955C216.237 232.724 217.165 232.562 218.137 232.469C219.279 232.349 220.2 232.239 220.898 232.136C221.597 232.026 222.104 231.864 222.42 231.651C222.735 231.437 222.893 231.122 222.893 230.705V230.628C222.893 229.818 222.637 229.192 222.126 228.749C221.623 228.305 220.907 228.084 219.978 228.084C218.998 228.084 218.218 228.301 217.638 228.736C217.059 229.162 216.675 229.699 216.488 230.347L211.451 229.938C211.707 228.744 212.21 227.713 212.96 226.844C213.71 225.966 214.677 225.293 215.862 224.824C217.055 224.347 218.435 224.108 220.004 224.108C221.094 224.108 222.138 224.236 223.136 224.491C224.141 224.747 225.032 225.143 225.808 225.68C226.592 226.217 227.21 226.908 227.661 227.751C228.113 228.587 228.339 229.588 228.339 230.756V244H223.174V241.277H223.021C222.705 241.891 222.283 242.432 221.755 242.901C221.227 243.361 220.592 243.723 219.85 243.987C219.109 244.243 218.252 244.371 217.281 244.371ZM218.84 240.612C219.641 240.612 220.349 240.455 220.962 240.139C221.576 239.815 222.058 239.381 222.407 238.835C222.756 238.29 222.931 237.672 222.931 236.982V234.898C222.761 235.009 222.526 235.111 222.228 235.205C221.938 235.29 221.61 235.371 221.244 235.447C220.877 235.516 220.511 235.58 220.144 235.639C219.778 235.69 219.445 235.737 219.147 235.78C218.508 235.874 217.95 236.023 217.472 236.227C216.995 236.432 216.624 236.709 216.36 237.058C216.096 237.399 215.964 237.825 215.964 238.337C215.964 239.078 216.232 239.645 216.769 240.037C217.315 240.42 218.005 240.612 218.84 240.612ZM238.01 217.818V244H232.564V217.818H238.01ZM259.139 244V217.818H276.781V222.382H264.674V228.621H275.873V233.185H264.674V239.436H276.832V244H259.139ZM286.526 217.818V244H281.08V217.818H286.526ZM299.837 244.384C297.817 244.384 296.078 243.974 294.621 243.156C293.172 242.33 292.056 241.162 291.272 239.653C290.488 238.136 290.096 236.342 290.096 234.271C290.096 232.251 290.488 230.479 291.272 228.953C292.056 227.428 293.159 226.239 294.583 225.386C296.015 224.534 297.694 224.108 299.62 224.108C300.915 224.108 302.121 224.317 303.238 224.734C304.363 225.143 305.343 225.761 306.178 226.588C307.022 227.415 307.678 228.455 308.147 229.707C308.615 230.952 308.85 232.409 308.85 234.08V235.575H292.269V232.2H303.723C303.723 231.416 303.553 230.722 303.212 230.116C302.871 229.511 302.398 229.038 301.793 228.697C301.196 228.348 300.502 228.173 299.709 228.173C298.882 228.173 298.15 228.365 297.51 228.749C296.88 229.124 296.385 229.631 296.027 230.27C295.669 230.901 295.486 231.604 295.478 232.379V235.588C295.478 236.56 295.657 237.399 296.015 238.107C296.381 238.814 296.897 239.359 297.561 239.743C298.226 240.126 299.015 240.318 299.926 240.318C300.532 240.318 301.086 240.233 301.588 240.062C302.091 239.892 302.522 239.636 302.88 239.295C303.238 238.955 303.51 238.537 303.698 238.043L308.735 238.375C308.479 239.585 307.955 240.642 307.162 241.545C306.378 242.44 305.364 243.139 304.12 243.642C302.884 244.136 301.456 244.384 299.837 244.384ZM321.276 244.384C319.265 244.384 317.534 243.957 316.086 243.105C314.645 242.244 313.537 241.051 312.762 239.526C311.995 238 311.611 236.244 311.611 234.259C311.611 232.247 311.999 230.483 312.775 228.966C313.559 227.44 314.671 226.251 316.111 225.399C317.551 224.538 319.265 224.108 321.25 224.108C322.963 224.108 324.463 224.419 325.75 225.041C327.037 225.663 328.056 226.537 328.806 227.662C329.556 228.787 329.969 230.108 330.046 231.625H324.907C324.762 230.645 324.378 229.857 323.756 229.26C323.142 228.655 322.337 228.352 321.34 228.352C320.496 228.352 319.759 228.582 319.128 229.043C318.506 229.494 318.02 230.155 317.671 231.024C317.321 231.893 317.147 232.946 317.147 234.182C317.147 235.435 317.317 236.5 317.658 237.378C318.007 238.256 318.498 238.925 319.128 239.385C319.759 239.845 320.496 240.075 321.34 240.075C321.962 240.075 322.52 239.947 323.015 239.692C323.517 239.436 323.931 239.065 324.255 238.58C324.587 238.085 324.804 237.493 324.907 236.803H330.046C329.961 238.303 329.551 239.624 328.819 240.766C328.094 241.899 327.093 242.786 325.814 243.425C324.536 244.064 323.023 244.384 321.276 244.384ZM343.977 224.364V228.455H332.152V224.364H343.977ZM334.837 219.659H340.283V237.966C340.283 238.469 340.359 238.861 340.513 239.142C340.666 239.415 340.879 239.607 341.152 239.717C341.433 239.828 341.757 239.884 342.124 239.884C342.379 239.884 342.635 239.862 342.891 239.82C343.146 239.768 343.342 239.73 343.479 239.705L344.335 243.757C344.063 243.842 343.679 243.94 343.185 244.051C342.69 244.17 342.089 244.243 341.382 244.268C340.07 244.32 338.919 244.145 337.93 243.744C336.95 243.344 336.188 242.722 335.642 241.878C335.097 241.034 334.828 239.969 334.837 238.682V219.659ZM347.525 244V224.364H352.805V227.79H353.009C353.367 226.571 353.968 225.651 354.812 225.028C355.656 224.398 356.627 224.082 357.727 224.082C357.999 224.082 358.293 224.099 358.609 224.134C358.924 224.168 359.201 224.214 359.44 224.274V229.107C359.184 229.03 358.83 228.962 358.379 228.902C357.927 228.842 357.513 228.812 357.138 228.812C356.337 228.812 355.621 228.987 354.991 229.337C354.369 229.678 353.874 230.155 353.508 230.768C353.15 231.382 352.971 232.089 352.971 232.891V244H347.525ZM362.255 244V224.364H367.701V244H362.255ZM364.991 221.832C364.181 221.832 363.487 221.564 362.907 221.027C362.336 220.482 362.051 219.83 362.051 219.071C362.051 218.321 362.336 217.678 362.907 217.141C363.487 216.595 364.181 216.322 364.991 216.322C365.801 216.322 366.491 216.595 367.062 217.141C367.642 217.678 367.931 218.321 367.931 219.071C367.931 219.83 367.642 220.482 367.062 221.027C366.491 221.564 365.801 221.832 364.991 221.832ZM380.936 244.384C378.925 244.384 377.195 243.957 375.746 243.105C374.305 242.244 373.197 241.051 372.422 239.526C371.655 238 371.271 236.244 371.271 234.259C371.271 232.247 371.659 230.483 372.435 228.966C373.219 227.44 374.331 226.251 375.771 225.399C377.212 224.538 378.925 224.108 380.911 224.108C382.624 224.108 384.124 224.419 385.411 225.041C386.697 225.663 387.716 226.537 388.466 227.662C389.216 228.787 389.629 230.108 389.706 231.625H384.567C384.422 230.645 384.038 229.857 383.416 229.26C382.803 228.655 381.997 228.352 381 228.352C380.156 228.352 379.419 228.582 378.788 229.043C378.166 229.494 377.68 230.155 377.331 231.024C376.982 231.893 376.807 232.946 376.807 234.182C376.807 235.435 376.977 236.5 377.318 237.378C377.668 238.256 378.158 238.925 378.788 239.385C379.419 239.845 380.156 240.075 381 240.075C381.622 240.075 382.18 239.947 382.675 239.692C383.178 239.436 383.591 239.065 383.915 238.58C384.247 238.085 384.464 237.493 384.567 236.803H389.706C389.621 238.303 389.212 239.624 388.479 240.766C387.754 241.899 386.753 242.786 385.474 243.425C384.196 244.064 382.683 244.384 380.936 244.384ZM393.193 244V224.364H398.639V244H393.193ZM395.929 221.832C395.119 221.832 394.424 221.564 393.845 221.027C393.274 220.482 392.988 219.83 392.988 219.071C392.988 218.321 393.274 217.678 393.845 217.141C394.424 216.595 395.119 216.322 395.929 216.322C396.738 216.322 397.429 216.595 398 217.141C398.579 217.678 398.869 218.321 398.869 219.071C398.869 219.83 398.579 220.482 398 221.027C397.429 221.564 396.738 221.832 395.929 221.832ZM413.446 224.364V228.455H401.621V224.364H413.446ZM404.305 219.659H409.751V237.966C409.751 238.469 409.828 238.861 409.982 239.142C410.135 239.415 410.348 239.607 410.621 239.717C410.902 239.828 411.226 239.884 411.592 239.884C411.848 239.884 412.104 239.862 412.359 239.82C412.615 239.768 412.811 239.73 412.947 239.705L413.804 243.757C413.531 243.842 413.148 243.94 412.653 244.051C412.159 244.17 411.558 244.243 410.851 244.268C409.538 244.32 408.388 244.145 407.399 243.744C406.419 243.344 405.656 242.722 405.111 241.878C404.565 241.034 404.297 239.969 404.305 238.682V219.659ZM420.356 251.364C419.665 251.364 419.018 251.308 418.413 251.197C417.816 251.095 417.322 250.963 416.93 250.801L418.157 246.736C418.796 246.932 419.371 247.038 419.883 247.055C420.403 247.072 420.85 246.953 421.225 246.697C421.609 246.442 421.92 246.007 422.158 245.393L422.478 244.562L415.434 224.364H421.161L425.227 238.784H425.431L429.535 224.364H435.3L427.668 246.122C427.302 247.179 426.803 248.099 426.173 248.884C425.55 249.676 424.762 250.286 423.808 250.712C422.853 251.146 421.702 251.364 420.356 251.364Z" fill="#08FDD8"/>
</g>
<defs>
<clipPath id="clip0_10_10">
<rect width="501" height="468" rx="234" fill="white"/>
</clipPath>
</defs>
</svg>
