<svg width="501" height="468" viewBox="0 0 501 468" fill="none" xmlns="http://www.w3.org/2000/svg">
<g clip-path="url(#clip0_10_10)">
<rect width="501" height="468" rx="234" fill="white"/>
<ellipse cx="250.5" cy="234" rx="250.5" ry="234" fill="black"/>
<path d="M50.2756 244V217.818H67.9176V222.382H55.8111V228.621H67.0099V233.185H55.8111V239.436H67.9688V244H50.2756ZM57.179 215.287L59.8892 209.47H64.9261L61.027 215.287H57.179ZM77.6623 217.818V244H72.2163V217.818H77.6623ZM90.9737 244.384C88.9538 244.384 87.2152 243.974 85.7578 243.156C84.3089 242.33 83.1925 241.162 82.4084 239.653C81.6243 238.136 81.2322 236.342 81.2322 234.271C81.2322 232.251 81.6243 230.479 82.4084 228.953C83.1925 227.428 84.2962 226.239 85.7195 225.386C87.1513 224.534 88.8303 224.108 90.7564 224.108C92.0518 224.108 93.2578 224.317 94.3743 224.734C95.4993 225.143 96.4794 225.761 97.3146 226.588C98.1584 227.415 98.8146 228.455 99.2834 229.707C99.7521 230.952 99.9865 232.409 99.9865 234.08V235.575H83.4055V232.2H94.8601C94.8601 231.416 94.6896 230.722 94.3487 230.116C94.0078 229.511 93.5348 229.038 92.9297 228.697C92.3331 228.348 91.6385 228.173 90.8459 228.173C90.0192 228.173 89.2862 228.365 88.647 228.749C88.0163 229.124 87.522 229.631 87.1641 230.27C86.8061 230.901 86.6229 231.604 86.6143 232.379V235.588C86.6143 236.56 86.7933 237.399 87.1513 238.107C87.5178 238.814 88.0334 239.359 88.6982 239.743C89.3629 240.126 90.1513 240.318 91.0632 240.318C91.6683 240.318 92.2223 240.233 92.7251 240.062C93.228 239.892 93.6584 239.636 94.0163 239.295C94.3743 238.955 94.647 238.537 94.8345 238.043L99.8715 238.375C99.6158 239.585 99.0916 240.642 98.299 241.545C97.5149 242.44 96.5007 243.139 95.2564 243.642C94.0206 244.136 92.593 244.384 90.9737 244.384ZM112.413 244.384C110.401 244.384 108.671 243.957 107.222 243.105C105.782 242.244 104.674 241.051 103.898 239.526C103.131 238 102.748 236.244 102.748 234.259C102.748 232.247 103.136 230.483 103.911 228.966C104.695 227.44 105.808 226.251 107.248 225.399C108.688 224.538 110.401 224.108 112.387 224.108C114.1 224.108 115.6 224.419 116.887 225.041C118.174 225.663 119.192 226.537 119.942 227.662C120.692 228.787 121.106 230.108 121.183 231.625H116.043C115.898 230.645 115.515 229.857 114.893 229.26C114.279 228.655 113.474 228.352 112.477 228.352C111.633 228.352 110.896 228.582 110.265 229.043C109.643 229.494 109.157 230.155 108.808 231.024C108.458 231.893 108.283 232.946 108.283 234.182C108.283 235.435 108.454 236.5 108.795 237.378C109.144 238.256 109.634 238.925 110.265 239.385C110.896 239.845 111.633 240.075 112.477 240.075C113.099 240.075 113.657 239.947 114.151 239.692C114.654 239.436 115.067 239.065 115.391 238.58C115.724 238.085 115.941 237.493 116.043 236.803H121.183C121.097 238.303 120.688 239.624 119.955 240.766C119.231 241.899 118.229 242.786 116.951 243.425C115.673 244.064 114.16 244.384 112.413 244.384ZM135.114 224.364V228.455H123.289V224.364H135.114ZM125.973 219.659H131.419V237.966C131.419 238.469 131.496 238.861 131.65 239.142C131.803 239.415 132.016 239.607 132.289 239.717C132.57 239.828 132.894 239.884 133.26 239.884C133.516 239.884 133.772 239.862 134.027 239.82C134.283 239.768 134.479 239.73 134.615 239.705L135.472 243.757C135.199 243.842 134.816 243.94 134.321 244.051C133.827 244.17 133.226 244.243 132.519 244.268C131.206 244.32 130.056 244.145 129.067 243.744C128.087 243.344 127.324 242.722 126.779 241.878C126.233 241.034 125.965 239.969 125.973 238.682V219.659ZM138.662 244V224.364H143.941V227.79H144.146C144.504 226.571 145.105 225.651 145.949 225.028C146.792 224.398 147.764 224.082 148.863 224.082C149.136 224.082 149.43 224.099 149.745 224.134C150.061 224.168 150.338 224.214 150.576 224.274V229.107C150.321 229.03 149.967 228.962 149.515 228.902C149.064 228.842 148.65 228.812 148.275 228.812C147.474 228.812 146.758 228.987 146.127 229.337C145.505 229.678 145.011 230.155 144.645 230.768C144.287 231.382 144.108 232.089 144.108 232.891V244H138.662ZM153.392 244V224.364H158.838V244H153.392ZM156.128 221.832C155.318 221.832 154.624 221.564 154.044 221.027C153.473 220.482 153.188 219.83 153.188 219.071C153.188 218.321 153.473 217.678 154.044 217.141C154.624 216.595 155.318 216.322 156.128 216.322C156.938 216.322 157.628 216.595 158.199 217.141C158.778 217.678 159.068 218.321 159.068 219.071C159.068 219.83 158.778 220.482 158.199 221.027C157.628 221.564 156.938 221.832 156.128 221.832ZM172.073 244.384C170.061 244.384 168.331 243.957 166.882 243.105C165.442 242.244 164.334 241.051 163.559 239.526C162.792 238 162.408 236.244 162.408 234.259C162.408 232.247 162.796 230.483 163.571 228.966C164.355 227.44 165.468 226.251 166.908 225.399C168.348 224.538 170.061 224.108 172.047 224.108C173.76 224.108 175.26 224.419 176.547 225.041C177.834 225.663 178.853 226.537 179.603 227.662C180.353 228.787 180.766 230.108 180.843 231.625H175.703C175.559 230.645 175.175 229.857 174.553 229.26C173.939 228.655 173.134 228.352 172.137 228.352C171.293 228.352 170.556 228.582 169.925 229.043C169.303 229.494 168.817 230.155 168.468 231.024C168.118 231.893 167.944 232.946 167.944 234.182C167.944 235.435 168.114 236.5 168.455 237.378C168.804 238.256 169.294 238.925 169.925 239.385C170.556 239.845 171.293 240.075 172.137 240.075C172.759 240.075 173.317 239.947 173.811 239.692C174.314 239.436 174.728 239.065 175.051 238.58C175.384 238.085 175.601 237.493 175.703 236.803H180.843C180.757 238.303 180.348 239.624 179.615 240.766C178.891 241.899 177.89 242.786 176.611 243.425C175.333 244.064 173.82 244.384 172.073 244.384ZM184.33 244V224.364H189.776V244H184.33ZM187.065 221.832C186.256 221.832 185.561 221.564 184.982 221.027C184.411 220.482 184.125 219.83 184.125 219.071C184.125 218.321 184.411 217.678 184.982 217.141C185.561 216.595 186.256 216.322 187.065 216.322C187.875 216.322 188.565 216.595 189.136 217.141C189.716 217.678 190.006 218.321 190.006 219.071C190.006 219.83 189.716 220.482 189.136 221.027C188.565 221.564 187.875 221.832 187.065 221.832ZM204.583 224.364V228.455H192.757V224.364H204.583ZM195.442 219.659H200.888V237.966C200.888 238.469 200.965 238.861 201.118 239.142C201.272 239.415 201.485 239.607 201.757 239.717C202.039 239.828 202.363 239.884 202.729 239.884C202.985 239.884 203.24 239.862 203.496 239.82C203.752 239.768 203.948 239.73 204.084 239.705L204.941 243.757C204.668 243.842 204.284 243.94 203.79 244.051C203.296 244.17 202.695 244.243 201.988 244.268C200.675 244.32 199.525 244.145 198.536 243.744C197.556 243.344 196.793 242.722 196.248 241.878C195.702 241.034 195.434 239.969 195.442 238.682V219.659ZM216.868 244.384C214.848 244.384 213.11 243.974 211.652 243.156C210.203 242.33 209.087 241.162 208.303 239.653C207.519 238.136 207.127 236.342 207.127 234.271C207.127 232.251 207.519 230.479 208.303 228.953C209.087 227.428 210.191 226.239 211.614 225.386C213.046 224.534 214.725 224.108 216.651 224.108C217.946 224.108 219.152 224.317 220.269 224.734C221.394 225.143 222.374 225.761 223.209 226.588C224.053 227.415 224.709 228.455 225.178 229.707C225.647 230.952 225.881 232.409 225.881 234.08V235.575H209.3V232.2H220.755C220.755 231.416 220.584 230.722 220.243 230.116C219.902 229.511 219.429 229.038 218.824 228.697C218.228 228.348 217.533 228.173 216.74 228.173C215.914 228.173 215.181 228.365 214.542 228.749C213.911 229.124 213.417 229.631 213.059 230.27C212.701 230.901 212.517 231.604 212.509 232.379V235.588C212.509 236.56 212.688 237.399 213.046 238.107C213.412 238.814 213.928 239.359 214.593 239.743C215.257 240.126 216.046 240.318 216.958 240.318C217.563 240.318 218.117 240.233 218.62 240.062C219.123 239.892 219.553 239.636 219.911 239.295C220.269 238.955 220.542 238.537 220.729 238.043L225.766 238.375C225.51 239.585 224.986 240.642 224.194 241.545C223.409 242.44 222.395 243.139 221.151 243.642C219.915 244.136 218.488 244.384 216.868 244.384ZM214.567 221.832L217.277 216.016H222.314L218.415 221.832H214.567ZM237.767 244V224.364H243.213V244H237.767ZM240.503 221.832C239.693 221.832 238.999 221.564 238.419 221.027C237.848 220.482 237.562 219.83 237.562 219.071C237.562 218.321 237.848 217.678 238.419 217.141C238.999 216.595 239.693 216.322 240.503 216.322C241.313 216.322 242.003 216.595 242.574 217.141C243.153 217.678 243.443 218.321 243.443 219.071C243.443 219.83 243.153 220.482 242.574 221.027C242.003 221.564 241.313 221.832 240.503 221.832ZM253.022 232.648V244H247.576V224.364H252.766V227.828H252.996C253.431 226.686 254.159 225.783 255.182 225.118C256.205 224.445 257.445 224.108 258.902 224.108C260.266 224.108 261.455 224.406 262.469 225.003C263.483 225.599 264.272 226.452 264.834 227.56C265.397 228.659 265.678 229.972 265.678 231.497V244H260.232V232.469C260.24 231.267 259.934 230.33 259.311 229.656C258.689 228.974 257.833 228.634 256.742 228.634C256.009 228.634 255.361 228.791 254.799 229.107C254.245 229.422 253.81 229.882 253.495 230.487C253.188 231.084 253.03 231.804 253.022 232.648ZM277.206 244.32C275.714 244.32 274.364 243.936 273.153 243.169C271.952 242.393 270.997 241.256 270.29 239.756C269.591 238.247 269.241 236.398 269.241 234.207C269.241 231.957 269.604 230.087 270.328 228.595C271.053 227.095 272.016 225.974 273.217 225.233C274.428 224.483 275.753 224.108 277.193 224.108C278.293 224.108 279.209 224.295 279.942 224.67C280.683 225.037 281.28 225.497 281.732 226.051C282.192 226.597 282.541 227.134 282.78 227.662H282.946V217.818H288.379V244H283.01V240.855H282.78C282.524 241.401 282.162 241.942 281.693 242.479C281.233 243.007 280.632 243.446 279.891 243.795C279.158 244.145 278.263 244.32 277.206 244.32ZM278.932 239.986C279.81 239.986 280.551 239.747 281.156 239.27C281.77 238.784 282.239 238.107 282.562 237.237C282.895 236.368 283.061 235.349 283.061 234.182C283.061 233.014 282.899 232 282.575 231.139C282.251 230.278 281.783 229.614 281.169 229.145C280.555 228.676 279.81 228.442 278.932 228.442C278.037 228.442 277.283 228.685 276.669 229.17C276.055 229.656 275.591 230.33 275.276 231.19C274.96 232.051 274.803 233.048 274.803 234.182C274.803 235.324 274.96 236.334 275.276 237.212C275.599 238.081 276.064 238.763 276.669 239.257C277.283 239.743 278.037 239.986 278.932 239.986ZM305.449 235.639V224.364H310.895V244H305.667V240.433H305.462C305.019 241.584 304.282 242.509 303.25 243.207C302.228 243.906 300.979 244.256 299.505 244.256C298.192 244.256 297.037 243.957 296.04 243.361C295.043 242.764 294.263 241.916 293.701 240.817C293.147 239.717 292.865 238.401 292.857 236.866V224.364H298.303V235.895C298.311 237.054 298.623 237.97 299.236 238.643C299.85 239.317 300.672 239.653 301.703 239.653C302.36 239.653 302.973 239.504 303.544 239.206C304.115 238.899 304.576 238.447 304.925 237.851C305.283 237.254 305.458 236.517 305.449 235.639ZM331.589 229.963L326.604 230.27C326.518 229.844 326.335 229.46 326.054 229.119C325.773 228.77 325.402 228.493 324.942 228.288C324.49 228.075 323.949 227.969 323.318 227.969C322.474 227.969 321.763 228.148 321.183 228.506C320.604 228.855 320.314 229.324 320.314 229.912C320.314 230.381 320.501 230.777 320.876 231.101C321.251 231.425 321.895 231.685 322.807 231.881L326.361 232.597C328.27 232.989 329.693 233.619 330.631 234.489C331.568 235.358 332.037 236.5 332.037 237.915C332.037 239.202 331.658 240.331 330.899 241.303C330.149 242.274 329.118 243.033 327.805 243.578C326.501 244.115 324.997 244.384 323.293 244.384C320.693 244.384 318.622 243.842 317.08 242.76C315.545 241.669 314.646 240.186 314.382 238.311L319.739 238.03C319.901 238.822 320.293 239.428 320.915 239.845C321.537 240.254 322.334 240.459 323.305 240.459C324.26 240.459 325.027 240.276 325.607 239.909C326.195 239.534 326.493 239.053 326.501 238.464C326.493 237.97 326.284 237.565 325.875 237.25C325.466 236.926 324.835 236.679 323.983 236.509L320.582 235.831C318.665 235.447 317.237 234.783 316.3 233.837C315.371 232.891 314.906 231.685 314.906 230.219C314.906 228.957 315.247 227.871 315.929 226.959C316.619 226.047 317.587 225.344 318.831 224.849C320.084 224.355 321.55 224.108 323.229 224.108C325.709 224.108 327.661 224.632 329.084 225.68C330.516 226.729 331.351 228.156 331.589 229.963ZM345.911 224.364V228.455H334.086V224.364H345.911ZM336.77 219.659H342.216V237.966C342.216 238.469 342.293 238.861 342.446 239.142C342.6 239.415 342.813 239.607 343.086 239.717C343.367 239.828 343.691 239.884 344.057 239.884C344.313 239.884 344.569 239.862 344.824 239.82C345.08 239.768 345.276 239.73 345.412 239.705L346.269 243.757C345.996 243.842 345.613 243.94 345.118 244.051C344.624 244.17 344.023 244.243 343.316 244.268C342.003 244.32 340.853 244.145 339.864 243.744C338.884 243.344 338.121 242.722 337.576 241.878C337.03 241.034 336.762 239.969 336.77 238.682V219.659ZM349.458 244V224.364H354.738V227.79H354.943C355.301 226.571 355.902 225.651 356.745 225.028C357.589 224.398 358.561 224.082 359.66 224.082C359.933 224.082 360.227 224.099 360.542 224.134C360.858 224.168 361.135 224.214 361.373 224.274V229.107C361.118 229.03 360.764 228.962 360.312 228.902C359.86 228.842 359.447 228.812 359.072 228.812C358.271 228.812 357.555 228.987 356.924 229.337C356.302 229.678 355.808 230.155 355.441 230.768C355.083 231.382 354.904 232.089 354.904 232.891V244H349.458ZM364.189 244V224.364H369.635V244H364.189ZM366.925 221.832C366.115 221.832 365.42 221.564 364.841 221.027C364.27 220.482 363.984 219.83 363.984 219.071C363.984 218.321 364.27 217.678 364.841 217.141C365.42 216.595 366.115 216.322 366.925 216.322C367.734 216.322 368.425 216.595 368.996 217.141C369.575 217.678 369.865 218.321 369.865 219.071C369.865 219.83 369.575 220.482 368.996 221.027C368.425 221.564 367.734 221.832 366.925 221.832ZM382.946 244.384C380.926 244.384 379.188 243.974 377.73 243.156C376.282 242.33 375.165 241.162 374.381 239.653C373.597 238.136 373.205 236.342 373.205 234.271C373.205 232.251 373.597 230.479 374.381 228.953C375.165 227.428 376.269 226.239 377.692 225.386C379.124 224.534 380.803 224.108 382.729 224.108C384.025 224.108 385.23 224.317 386.347 224.734C387.472 225.143 388.452 225.761 389.287 226.588C390.131 227.415 390.787 228.455 391.256 229.707C391.725 230.952 391.959 232.409 391.959 234.08V235.575H375.378V232.2H386.833C386.833 231.416 386.662 230.722 386.321 230.116C385.98 229.511 385.507 229.038 384.902 228.697C384.306 228.348 383.611 228.173 382.819 228.173C381.992 228.173 381.259 228.365 380.62 228.749C379.989 229.124 379.495 229.631 379.137 230.27C378.779 230.901 378.596 231.604 378.587 232.379V235.588C378.587 236.56 378.766 237.399 379.124 238.107C379.49 238.814 380.006 239.359 380.671 239.743C381.336 240.126 382.124 240.318 383.036 240.318C383.641 240.318 384.195 240.233 384.698 240.062C385.201 239.892 385.631 239.636 385.989 239.295C386.347 238.955 386.62 238.537 386.807 238.043L391.844 238.375C391.588 239.585 391.064 240.642 390.272 241.545C389.488 242.44 388.473 243.139 387.229 243.642C385.993 244.136 384.566 244.384 382.946 244.384ZM400.959 217.818V244H395.513V217.818H400.959ZM410.768 217.818V244H405.322V217.818H410.768ZM424.079 244.384C422.059 244.384 420.321 243.974 418.863 243.156C417.414 242.33 416.298 241.162 415.514 239.653C414.73 238.136 414.338 236.342 414.338 234.271C414.338 232.251 414.73 230.479 415.514 228.953C416.298 227.428 417.402 226.239 418.825 225.386C420.257 224.534 421.936 224.108 423.862 224.108C425.157 224.108 426.363 224.317 427.48 224.734C428.605 225.143 429.585 225.761 430.42 226.588C431.264 227.415 431.92 228.455 432.389 229.707C432.858 230.952 433.092 232.409 433.092 234.08V235.575H416.511V232.2H427.966C427.966 231.416 427.795 230.722 427.454 230.116C427.113 229.511 426.64 229.038 426.035 228.697C425.439 228.348 424.744 228.173 423.951 228.173C423.125 228.173 422.392 228.365 421.752 228.749C421.122 229.124 420.627 229.631 420.27 230.27C419.912 230.901 419.728 231.604 419.72 232.379V235.588C419.72 236.56 419.899 237.399 420.257 238.107C420.623 238.814 421.139 239.359 421.804 239.743C422.468 240.126 423.257 240.318 424.169 240.318C424.774 240.318 425.328 240.233 425.831 240.062C426.333 239.892 426.764 239.636 427.122 239.295C427.48 238.955 427.752 238.537 427.94 238.043L432.977 238.375C432.721 239.585 432.197 240.642 431.404 241.545C430.62 242.44 429.606 243.139 428.362 243.642C427.126 244.136 425.699 244.384 424.079 244.384Z" fill="#08FDD8"/>
</g>
<defs>
<clipPath id="clip0_10_10">
<rect width="501" height="468" rx="234" fill="white"/>
</clipPath>
</defs>
</svg>
