<svg width="501" height="468" viewBox="0 0 501 468" fill="none" xmlns="http://www.w3.org/2000/svg">
<g clip-path="url(#clip0_10_4)">
<rect width="501" height="468" rx="234" fill="white"/>
<ellipse cx="250.5" cy="234" rx="250.5" ry="234" fill="black"/>
<path d="M32.054 235.42C31.9631 234.504 31.5729 233.792 30.8835 233.284C30.1941 232.777 29.2585 232.523 28.0767 232.523C27.2737 232.523 26.5956 232.636 26.0426 232.864C25.4896 233.083 25.0653 233.39 24.7699 233.784C24.482 234.178 24.3381 234.625 24.3381 235.125C24.3229 235.542 24.41 235.905 24.5994 236.216C24.7964 236.527 25.0653 236.795 25.4062 237.023C25.7472 237.242 26.1411 237.436 26.5881 237.602C27.035 237.761 27.5123 237.898 28.0199 238.011L30.1108 238.511C31.1259 238.739 32.0578 239.042 32.9062 239.42C33.7547 239.799 34.4896 240.265 35.1108 240.818C35.732 241.371 36.2131 242.023 36.554 242.773C36.9025 243.523 37.0805 244.383 37.0881 245.352C37.0805 246.777 36.7169 248.011 35.9972 249.057C35.285 250.095 34.2547 250.902 32.9062 251.477C31.5653 252.045 29.9479 252.33 28.054 252.33C26.1752 252.33 24.5388 252.042 23.1449 251.466C21.7585 250.89 20.6752 250.038 19.8949 248.909C19.1222 247.773 18.7169 246.367 18.679 244.693H23.4403C23.4934 245.473 23.7169 246.125 24.1108 246.648C24.5123 247.163 25.0464 247.553 25.7131 247.818C26.3873 248.076 27.1487 248.205 27.9972 248.205C28.8305 248.205 29.554 248.083 30.1676 247.841C30.7888 247.598 31.2699 247.261 31.6108 246.83C31.9517 246.398 32.1222 245.902 32.1222 245.341C32.1222 244.818 31.9669 244.379 31.6562 244.023C31.3532 243.667 30.9063 243.364 30.3153 243.114C29.732 242.864 29.0161 242.636 28.1676 242.432L25.6335 241.795C23.6714 241.318 22.1222 240.572 20.9858 239.557C19.8494 238.542 19.285 237.174 19.2926 235.455C19.285 234.045 19.66 232.814 20.4176 231.761C21.1828 230.708 22.232 229.886 23.5653 229.295C24.8987 228.705 26.4138 228.409 28.1108 228.409C29.8381 228.409 31.3456 228.705 32.6335 229.295C33.929 229.886 34.9366 230.708 35.6562 231.761C36.3759 232.814 36.7472 234.034 36.7699 235.42H32.054ZM48.2614 252.341C46.4659 252.341 44.9205 251.977 43.625 251.25C42.3371 250.515 41.3447 249.477 40.6477 248.136C39.9508 246.788 39.6023 245.193 39.6023 243.352C39.6023 241.557 39.9508 239.981 40.6477 238.625C41.3447 237.269 42.3258 236.212 43.5909 235.455C44.8636 234.697 46.3561 234.318 48.0682 234.318C49.2197 234.318 50.2917 234.504 51.2841 234.875C52.2841 235.239 53.1553 235.788 53.8977 236.523C54.6477 237.258 55.2311 238.182 55.6477 239.295C56.0644 240.402 56.2727 241.697 56.2727 243.182V244.511H41.5341V241.511H51.7159C51.7159 240.814 51.5644 240.197 51.2614 239.659C50.9583 239.121 50.5379 238.701 50 238.398C49.4697 238.087 48.8523 237.932 48.1477 237.932C47.4129 237.932 46.7614 238.102 46.1932 238.443C45.6326 238.777 45.1932 239.227 44.875 239.795C44.5568 240.356 44.3939 240.981 44.3864 241.67V244.523C44.3864 245.386 44.5455 246.133 44.8636 246.761C45.1894 247.39 45.6477 247.875 46.2386 248.216C46.8295 248.557 47.5303 248.727 48.3409 248.727C48.8788 248.727 49.3712 248.652 49.8182 248.5C50.2652 248.348 50.6477 248.121 50.9659 247.818C51.2841 247.515 51.5265 247.144 51.6932 246.705L56.1705 247C55.9432 248.076 55.4773 249.015 54.7727 249.818C54.0758 250.614 53.1742 251.235 52.0682 251.682C50.9697 252.121 49.7008 252.341 48.2614 252.341ZM67.3182 252.341C65.5303 252.341 63.9924 251.962 62.7045 251.205C61.4242 250.439 60.4394 249.379 59.75 248.023C59.0682 246.667 58.7273 245.106 58.7273 243.341C58.7273 241.553 59.072 239.985 59.7614 238.636C60.4583 237.28 61.447 236.223 62.7273 235.466C64.0076 234.701 65.5303 234.318 67.2955 234.318C68.8182 234.318 70.1515 234.595 71.2955 235.148C72.4394 235.701 73.3447 236.477 74.0114 237.477C74.678 238.477 75.0455 239.652 75.1136 241H70.5455C70.4167 240.129 70.0758 239.428 69.5227 238.898C68.9773 238.36 68.2614 238.091 67.375 238.091C66.625 238.091 65.9697 238.295 65.4091 238.705C64.8561 239.106 64.4242 239.693 64.1136 240.466C63.803 241.239 63.6477 242.174 63.6477 243.273C63.6477 244.386 63.7992 245.333 64.1023 246.114C64.4129 246.894 64.8485 247.489 65.4091 247.898C65.9697 248.307 66.625 248.511 67.375 248.511C67.928 248.511 68.4242 248.398 68.8636 248.17C69.3106 247.943 69.678 247.614 69.9659 247.182C70.2614 246.742 70.4545 246.216 70.5455 245.602H75.1136C75.0379 246.936 74.6742 248.11 74.0227 249.125C73.3788 250.133 72.4886 250.92 71.3523 251.489C70.2159 252.057 68.8712 252.341 67.3182 252.341ZM89.4062 244.568V234.545H94.2472V252H89.5994V248.83H89.4176C89.0237 249.852 88.3684 250.674 87.4517 251.295C86.5426 251.917 85.4328 252.227 84.1222 252.227C82.9555 252.227 81.929 251.962 81.0426 251.432C80.1563 250.902 79.4631 250.148 78.9631 249.17C78.4706 248.193 78.2206 247.023 78.2131 245.659V234.545H83.054V244.795C83.0616 245.826 83.3381 246.64 83.8835 247.239C84.429 247.837 85.16 248.136 86.0767 248.136C86.66 248.136 87.2055 248.004 87.7131 247.739C88.2206 247.466 88.6297 247.064 88.9403 246.534C89.2585 246.004 89.4138 245.348 89.4062 244.568ZM98.1193 252V234.545H102.812V237.591H102.994C103.313 236.508 103.847 235.689 104.597 235.136C105.347 234.576 106.21 234.295 107.188 234.295C107.43 234.295 107.691 234.311 107.972 234.341C108.252 234.371 108.498 234.413 108.71 234.466V238.761C108.483 238.693 108.169 238.633 107.767 238.58C107.366 238.527 106.998 238.5 106.665 238.5C105.953 238.5 105.316 238.655 104.756 238.966C104.203 239.269 103.763 239.693 103.438 240.239C103.119 240.784 102.96 241.413 102.96 242.125V252H98.1193ZM111.213 252V234.545H116.054V252H111.213ZM113.645 232.295C112.925 232.295 112.308 232.057 111.793 231.58C111.285 231.095 111.031 230.515 111.031 229.841C111.031 229.174 111.285 228.602 111.793 228.125C112.308 227.64 112.925 227.398 113.645 227.398C114.365 227.398 114.978 227.64 115.486 228.125C116.001 228.602 116.259 229.174 116.259 229.841C116.259 230.515 116.001 231.095 115.486 231.58C114.978 232.057 114.365 232.295 113.645 232.295ZM129.216 234.545V238.182H118.705V234.545H129.216ZM121.091 230.364H125.932V246.636C125.932 247.083 126 247.432 126.136 247.682C126.273 247.924 126.462 248.095 126.705 248.193C126.955 248.292 127.242 248.341 127.568 248.341C127.795 248.341 128.023 248.322 128.25 248.284C128.477 248.239 128.652 248.205 128.773 248.182L129.534 251.784C129.292 251.86 128.951 251.947 128.511 252.045C128.072 252.152 127.538 252.216 126.909 252.239C125.742 252.284 124.72 252.129 123.841 251.773C122.97 251.417 122.292 250.864 121.807 250.114C121.322 249.364 121.083 248.417 121.091 247.273V230.364ZM135.358 258.545C134.744 258.545 134.169 258.496 133.631 258.398C133.1 258.307 132.661 258.189 132.312 258.045L133.403 254.432C133.972 254.606 134.483 254.701 134.938 254.716C135.4 254.731 135.797 254.625 136.131 254.398C136.472 254.17 136.748 253.784 136.96 253.239L137.244 252.5L130.983 234.545H136.074L139.688 247.364H139.869L143.517 234.545H148.642L141.858 253.886C141.532 254.826 141.089 255.644 140.528 256.341C139.975 257.045 139.275 257.587 138.426 257.966C137.578 258.352 136.555 258.545 135.358 258.545ZM179.151 236.875H174.173C174.082 236.231 173.897 235.659 173.616 235.159C173.336 234.652 172.976 234.22 172.537 233.864C172.098 233.508 171.59 233.235 171.014 233.045C170.446 232.856 169.829 232.761 169.162 232.761C167.957 232.761 166.908 233.061 166.014 233.659C165.12 234.25 164.427 235.114 163.935 236.25C163.442 237.379 163.196 238.75 163.196 240.364C163.196 242.023 163.442 243.417 163.935 244.545C164.435 245.674 165.132 246.527 166.026 247.102C166.92 247.678 167.954 247.966 169.128 247.966C169.787 247.966 170.397 247.879 170.957 247.705C171.526 247.53 172.029 247.277 172.469 246.943C172.908 246.602 173.272 246.189 173.56 245.705C173.855 245.22 174.06 244.667 174.173 244.045L179.151 244.068C179.022 245.136 178.7 246.167 178.185 247.159C177.677 248.144 176.991 249.027 176.128 249.807C175.272 250.58 174.249 251.193 173.06 251.648C171.878 252.095 170.541 252.318 169.048 252.318C166.973 252.318 165.116 251.848 163.48 250.909C161.851 249.97 160.563 248.61 159.616 246.83C158.677 245.049 158.207 242.894 158.207 240.364C158.207 237.826 158.685 235.667 159.639 233.886C160.594 232.106 161.889 230.75 163.526 229.818C165.162 228.879 167.003 228.409 169.048 228.409C170.397 228.409 171.647 228.598 172.798 228.977C173.957 229.356 174.984 229.909 175.878 230.636C176.772 231.356 177.499 232.239 178.06 233.284C178.628 234.33 178.991 235.527 179.151 236.875ZM187.565 252.33C186.452 252.33 185.459 252.136 184.588 251.75C183.717 251.356 183.027 250.777 182.52 250.011C182.02 249.239 181.77 248.277 181.77 247.125C181.77 246.155 181.948 245.341 182.304 244.682C182.66 244.023 183.145 243.492 183.759 243.091C184.372 242.689 185.069 242.386 185.849 242.182C186.637 241.977 187.463 241.833 188.327 241.75C189.342 241.644 190.16 241.545 190.781 241.455C191.402 241.356 191.853 241.212 192.134 241.023C192.414 240.833 192.554 240.553 192.554 240.182V240.114C192.554 239.394 192.327 238.837 191.872 238.443C191.425 238.049 190.789 237.852 189.963 237.852C189.092 237.852 188.399 238.045 187.884 238.432C187.368 238.811 187.027 239.288 186.861 239.864L182.384 239.5C182.611 238.439 183.058 237.523 183.724 236.75C184.391 235.97 185.251 235.371 186.304 234.955C187.365 234.53 188.592 234.318 189.986 234.318C190.955 234.318 191.884 234.432 192.77 234.659C193.664 234.886 194.455 235.239 195.145 235.716C195.842 236.193 196.391 236.807 196.793 237.557C197.194 238.299 197.395 239.189 197.395 240.227V252H192.804V249.58H192.668C192.387 250.125 192.012 250.606 191.543 251.023C191.073 251.432 190.509 251.754 189.849 251.989C189.19 252.216 188.429 252.33 187.565 252.33ZM188.952 248.989C189.664 248.989 190.293 248.848 190.838 248.568C191.384 248.28 191.812 247.894 192.122 247.409C192.433 246.924 192.588 246.375 192.588 245.761V243.909C192.437 244.008 192.228 244.098 191.963 244.182C191.705 244.258 191.414 244.33 191.088 244.398C190.762 244.458 190.437 244.515 190.111 244.568C189.785 244.614 189.49 244.655 189.224 244.693C188.656 244.777 188.16 244.909 187.736 245.091C187.312 245.273 186.982 245.519 186.747 245.83C186.512 246.133 186.395 246.511 186.395 246.966C186.395 247.625 186.634 248.129 187.111 248.477C187.596 248.818 188.209 248.989 188.952 248.989ZM201.151 252V234.545H205.764V237.625H205.969C206.332 236.602 206.938 235.795 207.787 235.205C208.635 234.614 209.651 234.318 210.832 234.318C212.029 234.318 213.048 234.617 213.889 235.216C214.73 235.807 215.291 236.61 215.571 237.625H215.753C216.109 236.625 216.753 235.826 217.685 235.227C218.624 234.621 219.734 234.318 221.014 234.318C222.643 234.318 223.965 234.837 224.98 235.875C226.003 236.905 226.514 238.367 226.514 240.261V252H221.685V241.216C221.685 240.246 221.427 239.519 220.912 239.034C220.397 238.549 219.753 238.307 218.98 238.307C218.101 238.307 217.416 238.587 216.923 239.148C216.431 239.701 216.185 240.432 216.185 241.341V252H211.491V241.114C211.491 240.258 211.245 239.576 210.753 239.068C210.268 238.561 209.628 238.307 208.832 238.307C208.295 238.307 207.81 238.443 207.378 238.716C206.954 238.981 206.616 239.356 206.366 239.841C206.116 240.318 205.991 240.879 205.991 241.523V252H201.151ZM238.293 252.341C236.497 252.341 234.952 251.977 233.656 251.25C232.368 250.515 231.376 249.477 230.679 248.136C229.982 246.788 229.634 245.193 229.634 243.352C229.634 241.557 229.982 239.981 230.679 238.625C231.376 237.269 232.357 236.212 233.622 235.455C234.895 234.697 236.387 234.318 238.099 234.318C239.251 234.318 240.323 234.504 241.315 234.875C242.315 235.239 243.187 235.788 243.929 236.523C244.679 237.258 245.262 238.182 245.679 239.295C246.096 240.402 246.304 241.697 246.304 243.182V244.511H231.565V241.511H241.747C241.747 240.814 241.596 240.197 241.293 239.659C240.99 239.121 240.569 238.701 240.031 238.398C239.501 238.087 238.884 237.932 238.179 237.932C237.444 237.932 236.793 238.102 236.224 238.443C235.664 238.777 235.224 239.227 234.906 239.795C234.588 240.356 234.425 240.981 234.418 241.67V244.523C234.418 245.386 234.577 246.133 234.895 246.761C235.221 247.39 235.679 247.875 236.27 248.216C236.861 248.557 237.562 248.727 238.372 248.727C238.91 248.727 239.402 248.652 239.849 248.5C240.296 248.348 240.679 248.121 240.997 247.818C241.315 247.515 241.558 247.144 241.724 246.705L246.202 247C245.974 248.076 245.509 249.015 244.804 249.818C244.107 250.614 243.205 251.235 242.099 251.682C241.001 252.121 239.732 252.341 238.293 252.341ZM249.463 252V234.545H254.156V237.591H254.338C254.656 236.508 255.19 235.689 255.94 235.136C256.69 234.576 257.554 234.295 258.531 234.295C258.774 234.295 259.035 234.311 259.315 234.341C259.596 234.371 259.842 234.413 260.054 234.466V238.761C259.827 238.693 259.512 238.633 259.111 238.58C258.709 238.527 258.342 238.5 258.009 238.5C257.296 238.5 256.66 238.655 256.099 238.966C255.546 239.269 255.107 239.693 254.781 240.239C254.463 240.784 254.304 241.413 254.304 242.125V252H249.463ZM267.034 252.33C265.92 252.33 264.928 252.136 264.057 251.75C263.186 251.356 262.496 250.777 261.989 250.011C261.489 249.239 261.239 248.277 261.239 247.125C261.239 246.155 261.417 245.341 261.773 244.682C262.129 244.023 262.614 243.492 263.227 243.091C263.841 242.689 264.538 242.386 265.318 242.182C266.106 241.977 266.932 241.833 267.795 241.75C268.811 241.644 269.629 241.545 270.25 241.455C270.871 241.356 271.322 241.212 271.602 241.023C271.883 240.833 272.023 240.553 272.023 240.182V240.114C272.023 239.394 271.795 238.837 271.341 238.443C270.894 238.049 270.258 237.852 269.432 237.852C268.561 237.852 267.867 238.045 267.352 238.432C266.837 238.811 266.496 239.288 266.33 239.864L261.852 239.5C262.08 238.439 262.527 237.523 263.193 236.75C263.86 235.97 264.72 235.371 265.773 234.955C266.833 234.53 268.061 234.318 269.455 234.318C270.424 234.318 271.352 234.432 272.239 234.659C273.133 234.886 273.924 235.239 274.614 235.716C275.311 236.193 275.86 236.807 276.261 237.557C276.663 238.299 276.864 239.189 276.864 240.227V252H272.273V249.58H272.136C271.856 250.125 271.481 250.606 271.011 251.023C270.542 251.432 269.977 251.754 269.318 251.989C268.659 252.216 267.898 252.33 267.034 252.33ZM268.42 248.989C269.133 248.989 269.761 248.848 270.307 248.568C270.852 248.28 271.28 247.894 271.591 247.409C271.902 246.924 272.057 246.375 272.057 245.761V243.909C271.905 244.008 271.697 244.098 271.432 244.182C271.174 244.258 270.883 244.33 270.557 244.398C270.231 244.458 269.905 244.515 269.58 244.568C269.254 244.614 268.958 244.655 268.693 244.693C268.125 244.777 267.629 244.909 267.205 245.091C266.78 245.273 266.451 245.519 266.216 245.83C265.981 246.133 265.864 246.511 265.864 246.966C265.864 247.625 266.102 248.129 266.58 248.477C267.064 248.818 267.678 248.989 268.42 248.989ZM295.142 239.523L290.71 239.795C290.634 239.417 290.472 239.076 290.222 238.773C289.972 238.462 289.642 238.216 289.233 238.034C288.831 237.845 288.35 237.75 287.79 237.75C287.04 237.75 286.407 237.909 285.892 238.227C285.377 238.538 285.119 238.955 285.119 239.477C285.119 239.894 285.286 240.246 285.619 240.534C285.953 240.822 286.525 241.053 287.335 241.227L290.494 241.864C292.191 242.212 293.456 242.773 294.29 243.545C295.123 244.318 295.54 245.333 295.54 246.591C295.54 247.735 295.203 248.739 294.528 249.602C293.862 250.466 292.945 251.14 291.778 251.625C290.619 252.102 289.282 252.341 287.767 252.341C285.456 252.341 283.616 251.86 282.244 250.898C280.881 249.928 280.081 248.61 279.847 246.943L284.608 246.693C284.752 247.398 285.1 247.936 285.653 248.307C286.206 248.67 286.915 248.852 287.778 248.852C288.627 248.852 289.309 248.689 289.824 248.364C290.347 248.03 290.612 247.602 290.619 247.08C290.612 246.64 290.426 246.28 290.062 246C289.699 245.712 289.138 245.492 288.381 245.341L285.358 244.739C283.653 244.398 282.384 243.807 281.551 242.966C280.725 242.125 280.312 241.053 280.312 239.75C280.312 238.629 280.616 237.663 281.222 236.852C281.835 236.042 282.695 235.417 283.801 234.977C284.915 234.538 286.218 234.318 287.71 234.318C289.915 234.318 291.65 234.784 292.915 235.716C294.188 236.648 294.93 237.917 295.142 239.523ZM311.006 228.727V252H306.085V228.727H311.006ZM319.804 241.909V252H314.963V234.545H319.577V237.625H319.781C320.168 236.61 320.815 235.807 321.724 235.216C322.634 234.617 323.736 234.318 325.031 234.318C326.243 234.318 327.3 234.583 328.202 235.114C329.103 235.644 329.804 236.402 330.304 237.386C330.804 238.364 331.054 239.53 331.054 240.886V252H326.213V241.75C326.221 240.682 325.948 239.848 325.395 239.25C324.842 238.644 324.08 238.341 323.111 238.341C322.459 238.341 321.884 238.481 321.384 238.761C320.891 239.042 320.505 239.451 320.224 239.989C319.952 240.519 319.812 241.159 319.804 241.909ZM349.392 239.523L344.96 239.795C344.884 239.417 344.722 239.076 344.472 238.773C344.222 238.462 343.892 238.216 343.483 238.034C343.081 237.845 342.6 237.75 342.04 237.75C341.29 237.75 340.657 237.909 340.142 238.227C339.627 238.538 339.369 238.955 339.369 239.477C339.369 239.894 339.536 240.246 339.869 240.534C340.203 240.822 340.775 241.053 341.585 241.227L344.744 241.864C346.441 242.212 347.706 242.773 348.54 243.545C349.373 244.318 349.79 245.333 349.79 246.591C349.79 247.735 349.453 248.739 348.778 249.602C348.112 250.466 347.195 251.14 346.028 251.625C344.869 252.102 343.532 252.341 342.017 252.341C339.706 252.341 337.866 251.86 336.494 250.898C335.131 249.928 334.331 248.61 334.097 246.943L338.858 246.693C339.002 247.398 339.35 247.936 339.903 248.307C340.456 248.67 341.165 248.852 342.028 248.852C342.877 248.852 343.559 248.689 344.074 248.364C344.597 248.03 344.862 247.602 344.869 247.08C344.862 246.64 344.676 246.28 344.312 246C343.949 245.712 343.388 245.492 342.631 245.341L339.608 244.739C337.903 244.398 336.634 243.807 335.801 242.966C334.975 242.125 334.562 241.053 334.562 239.75C334.562 238.629 334.866 237.663 335.472 236.852C336.085 236.042 336.945 235.417 338.051 234.977C339.165 234.538 340.468 234.318 341.96 234.318C344.165 234.318 345.9 234.784 347.165 235.716C348.438 236.648 349.18 237.917 349.392 239.523ZM362.122 234.545V238.182H351.611V234.545H362.122ZM353.997 230.364H358.838V246.636C358.838 247.083 358.906 247.432 359.043 247.682C359.179 247.924 359.368 248.095 359.611 248.193C359.861 248.292 360.149 248.341 360.474 248.341C360.702 248.341 360.929 248.322 361.156 248.284C361.384 248.239 361.558 248.205 361.679 248.182L362.44 251.784C362.198 251.86 361.857 251.947 361.418 252.045C360.978 252.152 360.444 252.216 359.815 252.239C358.649 252.284 357.626 252.129 356.747 251.773C355.876 251.417 355.198 250.864 354.713 250.114C354.228 249.364 353.99 248.417 353.997 247.273V230.364ZM370.253 252.33C369.139 252.33 368.147 252.136 367.276 251.75C366.404 251.356 365.715 250.777 365.207 250.011C364.707 249.239 364.457 248.277 364.457 247.125C364.457 246.155 364.635 245.341 364.991 244.682C365.348 244.023 365.832 243.492 366.446 243.091C367.06 242.689 367.757 242.386 368.537 242.182C369.325 241.977 370.151 241.833 371.014 241.75C372.029 241.644 372.848 241.545 373.469 241.455C374.09 241.356 374.541 241.212 374.821 241.023C375.101 240.833 375.241 240.553 375.241 240.182V240.114C375.241 239.394 375.014 238.837 374.56 238.443C374.113 238.049 373.476 237.852 372.651 237.852C371.779 237.852 371.086 238.045 370.571 238.432C370.056 238.811 369.715 239.288 369.548 239.864L365.071 239.5C365.298 238.439 365.745 237.523 366.412 236.75C367.079 235.97 367.938 235.371 368.991 234.955C370.052 234.53 371.279 234.318 372.673 234.318C373.643 234.318 374.571 234.432 375.457 234.659C376.351 234.886 377.143 235.239 377.832 235.716C378.529 236.193 379.079 236.807 379.48 237.557C379.882 238.299 380.082 239.189 380.082 240.227V252H375.491V249.58H375.355C375.075 250.125 374.7 250.606 374.23 251.023C373.76 251.432 373.196 251.754 372.537 251.989C371.878 252.216 371.116 252.33 370.253 252.33ZM371.639 248.989C372.351 248.989 372.98 248.848 373.526 248.568C374.071 248.28 374.499 247.894 374.81 247.409C375.12 246.924 375.276 246.375 375.276 245.761V243.909C375.124 244.008 374.916 244.098 374.651 244.182C374.393 244.258 374.101 244.33 373.776 244.398C373.45 244.458 373.124 244.515 372.798 244.568C372.473 244.614 372.177 244.655 371.912 244.693C371.344 244.777 370.848 244.909 370.423 245.091C369.999 245.273 369.67 245.519 369.435 245.83C369.2 246.133 369.082 246.511 369.082 246.966C369.082 247.625 369.321 248.129 369.798 248.477C370.283 248.818 370.897 248.989 371.639 248.989ZM388.679 228.727V252H383.838V228.727H388.679ZM397.398 228.727V252H392.557V228.727H397.398ZM406.253 252.33C405.139 252.33 404.147 252.136 403.276 251.75C402.404 251.356 401.715 250.777 401.207 250.011C400.707 249.239 400.457 248.277 400.457 247.125C400.457 246.155 400.635 245.341 400.991 244.682C401.348 244.023 401.832 243.492 402.446 243.091C403.06 242.689 403.757 242.386 404.537 242.182C405.325 241.977 406.151 241.833 407.014 241.75C408.029 241.644 408.848 241.545 409.469 241.455C410.09 241.356 410.541 241.212 410.821 241.023C411.101 240.833 411.241 240.553 411.241 240.182V240.114C411.241 239.394 411.014 238.837 410.56 238.443C410.113 238.049 409.476 237.852 408.651 237.852C407.779 237.852 407.086 238.045 406.571 238.432C406.056 238.811 405.715 239.288 405.548 239.864L401.071 239.5C401.298 238.439 401.745 237.523 402.412 236.75C403.079 235.97 403.938 235.371 404.991 234.955C406.052 234.53 407.279 234.318 408.673 234.318C409.643 234.318 410.571 234.432 411.457 234.659C412.351 234.886 413.143 235.239 413.832 235.716C414.529 236.193 415.079 236.807 415.48 237.557C415.882 238.299 416.082 239.189 416.082 240.227V252H411.491V249.58H411.355C411.075 250.125 410.7 250.606 410.23 251.023C409.76 251.432 409.196 251.754 408.537 251.989C407.878 252.216 407.116 252.33 406.253 252.33ZM407.639 248.989C408.351 248.989 408.98 248.848 409.526 248.568C410.071 248.28 410.499 247.894 410.81 247.409C411.12 246.924 411.276 246.375 411.276 245.761V243.909C411.124 244.008 410.916 244.098 410.651 244.182C410.393 244.258 410.101 244.33 409.776 244.398C409.45 244.458 409.124 244.515 408.798 244.568C408.473 244.614 408.177 244.655 407.912 244.693C407.344 244.777 406.848 244.909 406.423 245.091C405.999 245.273 405.67 245.519 405.435 245.83C405.2 246.133 405.082 246.511 405.082 246.966C405.082 247.625 405.321 248.129 405.798 248.477C406.283 248.818 406.897 248.989 407.639 248.989ZM429.122 234.545V238.182H418.611V234.545H429.122ZM420.997 230.364H425.838V246.636C425.838 247.083 425.906 247.432 426.043 247.682C426.179 247.924 426.368 248.095 426.611 248.193C426.861 248.292 427.149 248.341 427.474 248.341C427.702 248.341 427.929 248.322 428.156 248.284C428.384 248.239 428.558 248.205 428.679 248.182L429.44 251.784C429.198 251.86 428.857 251.947 428.418 252.045C427.978 252.152 427.444 252.216 426.815 252.239C425.649 252.284 424.626 252.129 423.747 251.773C422.876 251.417 422.198 250.864 421.713 250.114C421.228 249.364 420.99 248.417 420.997 247.273V230.364ZM432.276 252V234.545H437.116V252H432.276ZM434.707 232.295C433.988 232.295 433.37 232.057 432.855 231.58C432.348 231.095 432.094 230.515 432.094 229.841C432.094 229.174 432.348 228.602 432.855 228.125C433.37 227.64 433.988 227.398 434.707 227.398C435.427 227.398 436.041 227.64 436.548 228.125C437.063 228.602 437.321 229.174 437.321 229.841C437.321 230.515 437.063 231.095 436.548 231.58C436.041 232.057 435.427 232.295 434.707 232.295ZM448.881 252.341C447.116 252.341 445.589 251.966 444.301 251.216C443.021 250.458 442.032 249.405 441.335 248.057C440.638 246.701 440.29 245.129 440.29 243.341C440.29 241.538 440.638 239.962 441.335 238.614C442.032 237.258 443.021 236.205 444.301 235.455C445.589 234.697 447.116 234.318 448.881 234.318C450.646 234.318 452.169 234.697 453.449 235.455C454.737 236.205 455.729 237.258 456.426 238.614C457.123 239.962 457.472 241.538 457.472 243.341C457.472 245.129 457.123 246.701 456.426 248.057C455.729 249.405 454.737 250.458 453.449 251.216C452.169 251.966 450.646 252.341 448.881 252.341ZM448.903 248.591C449.706 248.591 450.377 248.364 450.915 247.909C451.453 247.447 451.858 246.818 452.131 246.023C452.411 245.227 452.551 244.322 452.551 243.307C452.551 242.292 452.411 241.386 452.131 240.591C451.858 239.795 451.453 239.167 450.915 238.705C450.377 238.242 449.706 238.011 448.903 238.011C448.093 238.011 447.411 238.242 446.858 238.705C446.313 239.167 445.9 239.795 445.619 240.591C445.347 241.386 445.21 242.292 445.21 243.307C445.21 244.322 445.347 245.227 445.619 246.023C445.9 246.818 446.313 247.447 446.858 247.909C447.411 248.364 448.093 248.591 448.903 248.591ZM465.46 241.909V252H460.619V234.545H465.233V237.625H465.438C465.824 236.61 466.472 235.807 467.381 235.216C468.29 234.617 469.392 234.318 470.688 234.318C471.9 234.318 472.956 234.583 473.858 235.114C474.759 235.644 475.46 236.402 475.96 237.386C476.46 238.364 476.71 239.53 476.71 240.886V252H471.869V241.75C471.877 240.682 471.604 239.848 471.051 239.25C470.498 238.644 469.737 238.341 468.767 238.341C468.116 238.341 467.54 238.481 467.04 238.761C466.547 239.042 466.161 239.451 465.881 239.989C465.608 240.519 465.468 241.159 465.46 241.909Z" fill="#08FDD8"/>
</g>
<defs>
<clipPath id="clip0_10_4">
<rect width="501" height="468" rx="234" fill="white"/>
</clipPath>
</defs>
</svg>
