<svg width="501" height="468" viewBox="0 0 501 468" fill="none" xmlns="http://www.w3.org/2000/svg">
<g clip-path="url(#clip0_9_3)">
<rect width="501" height="468" rx="234" fill="white"/>
<ellipse cx="250.5" cy="234" rx="250.5" ry="234" fill="black"/>
<path d="M54.7045 221.176V215.091H83.375V221.176H72.6875V250H65.392V221.176H54.7045ZM85.2415 250V223.818H92.2812V228.386H92.554C93.0313 226.761 93.8324 225.534 94.9574 224.705C96.0824 223.864 97.3778 223.443 98.8438 223.443C99.2074 223.443 99.5994 223.466 100.02 223.511C100.44 223.557 100.81 223.619 101.128 223.699V230.142C100.787 230.04 100.315 229.949 99.7131 229.869C99.1108 229.79 98.5597 229.75 98.0597 229.75C96.9915 229.75 96.0369 229.983 95.196 230.449C94.3665 230.903 93.7074 231.54 93.2188 232.358C92.7415 233.176 92.5028 234.119 92.5028 235.188V250H85.2415ZM115.493 250.511C112.845 250.511 110.555 249.949 108.624 248.824C106.703 247.687 105.22 246.108 104.175 244.085C103.129 242.051 102.607 239.693 102.607 237.011C102.607 234.307 103.129 231.943 104.175 229.92C105.22 227.886 106.703 226.307 108.624 225.182C110.555 224.045 112.845 223.477 115.493 223.477C118.141 223.477 120.425 224.045 122.345 225.182C124.277 226.307 125.766 227.886 126.811 229.92C127.857 231.943 128.379 234.307 128.379 237.011C128.379 239.693 127.857 242.051 126.811 244.085C125.766 246.108 124.277 247.687 122.345 248.824C120.425 249.949 118.141 250.511 115.493 250.511ZM115.527 244.886C116.732 244.886 117.737 244.545 118.544 243.864C119.351 243.17 119.959 242.227 120.368 241.034C120.788 239.841 120.999 238.483 120.999 236.96C120.999 235.438 120.788 234.08 120.368 232.886C119.959 231.693 119.351 230.75 118.544 230.057C117.737 229.364 116.732 229.017 115.527 229.017C114.311 229.017 113.288 229.364 112.459 230.057C111.641 230.75 111.021 231.693 110.601 232.886C110.192 234.08 109.987 235.438 109.987 236.96C109.987 238.483 110.192 239.841 110.601 241.034C111.021 242.227 111.641 243.17 112.459 243.864C113.288 244.545 114.311 244.886 115.527 244.886ZM149.891 238.852V223.818H157.152V250H150.18V245.244H149.908C149.317 246.778 148.334 248.011 146.959 248.943C145.595 249.875 143.93 250.341 141.964 250.341C140.214 250.341 138.675 249.943 137.345 249.148C136.016 248.352 134.976 247.222 134.226 245.756C133.487 244.29 133.112 242.534 133.101 240.489V223.818H140.362V239.193C140.374 240.739 140.788 241.96 141.607 242.858C142.425 243.756 143.521 244.205 144.896 244.205C145.771 244.205 146.589 244.006 147.351 243.608C148.112 243.199 148.726 242.597 149.192 241.801C149.669 241.006 149.902 240.023 149.891 238.852ZM163.097 250V215.091H170.358V228.216H170.58C170.898 227.511 171.358 226.795 171.96 226.068C172.574 225.33 173.369 224.716 174.347 224.227C175.335 223.727 176.563 223.477 178.028 223.477C179.938 223.477 181.699 223.977 183.312 224.977C184.926 225.966 186.216 227.46 187.182 229.46C188.148 231.449 188.631 233.943 188.631 236.943C188.631 239.864 188.159 242.33 187.216 244.341C186.284 246.341 185.011 247.858 183.398 248.892C181.795 249.915 180 250.426 178.011 250.426C176.602 250.426 175.403 250.193 174.415 249.727C173.438 249.261 172.636 248.676 172.011 247.972C171.386 247.256 170.909 246.534 170.58 245.807H170.256V250H163.097ZM170.205 236.909C170.205 238.466 170.42 239.824 170.852 240.983C171.284 242.142 171.909 243.045 172.727 243.693C173.545 244.33 174.54 244.648 175.71 244.648C176.892 244.648 177.892 244.324 178.71 243.676C179.528 243.017 180.148 242.108 180.568 240.949C181 239.778 181.216 238.432 181.216 236.909C181.216 235.398 181.006 234.068 180.585 232.92C180.165 231.773 179.545 230.875 178.727 230.227C177.909 229.58 176.903 229.256 175.71 229.256C174.528 229.256 173.528 229.568 172.71 230.193C171.903 230.818 171.284 231.705 170.852 232.852C170.42 234 170.205 235.352 170.205 236.909ZM200.737 215.091V250H193.476V215.091H200.737ZM218.486 250.511C215.793 250.511 213.474 249.966 211.531 248.875C209.599 247.773 208.111 246.216 207.065 244.205C206.02 242.182 205.497 239.79 205.497 237.028C205.497 234.335 206.02 231.972 207.065 229.938C208.111 227.903 209.582 226.318 211.48 225.182C213.389 224.045 215.628 223.477 218.196 223.477C219.923 223.477 221.531 223.756 223.02 224.312C224.52 224.858 225.827 225.682 226.94 226.784C228.065 227.886 228.94 229.273 229.565 230.943C230.19 232.602 230.503 234.545 230.503 236.773V238.767H208.395V234.267H223.668C223.668 233.222 223.44 232.295 222.986 231.489C222.531 230.682 221.901 230.051 221.094 229.597C220.298 229.131 219.372 228.898 218.315 228.898C217.213 228.898 216.236 229.153 215.384 229.665C214.543 230.165 213.884 230.841 213.406 231.693C212.929 232.534 212.685 233.472 212.673 234.506V238.784C212.673 240.08 212.912 241.199 213.389 242.142C213.878 243.085 214.565 243.812 215.452 244.324C216.338 244.835 217.389 245.091 218.605 245.091C219.412 245.091 220.151 244.977 220.821 244.75C221.491 244.523 222.065 244.182 222.543 243.727C223.02 243.273 223.384 242.716 223.634 242.057L230.349 242.5C230.009 244.114 229.31 245.523 228.253 246.727C227.207 247.92 225.855 248.852 224.196 249.523C222.548 250.182 220.645 250.511 218.486 250.511ZM257.026 231.284L250.378 231.693C250.264 231.125 250.02 230.614 249.645 230.159C249.27 229.693 248.776 229.324 248.162 229.051C247.56 228.767 246.838 228.625 245.997 228.625C244.872 228.625 243.923 228.864 243.151 229.341C242.378 229.807 241.991 230.432 241.991 231.216C241.991 231.841 242.241 232.369 242.741 232.801C243.241 233.233 244.099 233.58 245.315 233.841L250.054 234.795C252.599 235.318 254.497 236.159 255.747 237.318C256.997 238.477 257.622 240 257.622 241.886C257.622 243.602 257.116 245.108 256.105 246.403C255.105 247.699 253.73 248.71 251.98 249.438C250.241 250.153 248.236 250.511 245.963 250.511C242.497 250.511 239.736 249.79 237.679 248.347C235.634 246.892 234.435 244.915 234.082 242.415L241.224 242.04C241.44 243.097 241.963 243.903 242.793 244.46C243.622 245.006 244.685 245.278 245.98 245.278C247.253 245.278 248.276 245.034 249.048 244.545C249.832 244.045 250.23 243.403 250.241 242.619C250.23 241.96 249.952 241.42 249.406 241C248.861 240.568 248.02 240.239 246.884 240.011L242.349 239.108C239.793 238.597 237.889 237.71 236.639 236.449C235.401 235.187 234.781 233.58 234.781 231.625C234.781 229.943 235.236 228.494 236.145 227.278C237.065 226.062 238.355 225.125 240.014 224.466C241.685 223.807 243.639 223.477 245.878 223.477C249.185 223.477 251.787 224.176 253.685 225.574C255.594 226.972 256.707 228.875 257.026 231.284ZM269.456 234.864V250H262.195V215.091H269.251V228.438H269.558C270.149 226.892 271.104 225.682 272.422 224.807C273.74 223.92 275.393 223.477 277.382 223.477C279.2 223.477 280.786 223.875 282.138 224.67C283.501 225.455 284.558 226.585 285.308 228.062C286.07 229.528 286.445 231.284 286.433 233.33V250H279.172V234.625C279.183 233.011 278.774 231.756 277.945 230.858C277.126 229.96 275.979 229.511 274.501 229.511C273.513 229.511 272.638 229.722 271.876 230.142C271.126 230.562 270.536 231.176 270.104 231.983C269.683 232.778 269.467 233.739 269.456 234.864ZM303.977 250.511C301.33 250.511 299.04 249.949 297.108 248.824C295.188 247.687 293.705 246.108 292.659 244.085C291.614 242.051 291.091 239.693 291.091 237.011C291.091 234.307 291.614 231.943 292.659 229.92C293.705 227.886 295.188 226.307 297.108 225.182C299.04 224.045 301.33 223.477 303.977 223.477C306.625 223.477 308.909 224.045 310.83 225.182C312.761 226.307 314.25 227.886 315.295 229.92C316.341 231.943 316.864 234.307 316.864 237.011C316.864 239.693 316.341 242.051 315.295 244.085C314.25 246.108 312.761 247.687 310.83 248.824C308.909 249.949 306.625 250.511 303.977 250.511ZM304.011 244.886C305.216 244.886 306.222 244.545 307.028 243.864C307.835 243.17 308.443 242.227 308.852 241.034C309.273 239.841 309.483 238.483 309.483 236.96C309.483 235.438 309.273 234.08 308.852 232.886C308.443 231.693 307.835 230.75 307.028 230.057C306.222 229.364 305.216 229.017 304.011 229.017C302.795 229.017 301.773 229.364 300.943 230.057C300.125 230.75 299.506 231.693 299.085 232.886C298.676 234.08 298.472 235.438 298.472 236.96C298.472 238.483 298.676 239.841 299.085 241.034C299.506 242.227 300.125 243.17 300.943 243.864C301.773 244.545 302.795 244.886 304.011 244.886ZM333.415 250.511C330.767 250.511 328.477 249.949 326.545 248.824C324.625 247.687 323.142 246.108 322.097 244.085C321.051 242.051 320.528 239.693 320.528 237.011C320.528 234.307 321.051 231.943 322.097 229.92C323.142 227.886 324.625 226.307 326.545 225.182C328.477 224.045 330.767 223.477 333.415 223.477C336.062 223.477 338.347 224.045 340.267 225.182C342.199 226.307 343.688 227.886 344.733 229.92C345.778 231.943 346.301 234.307 346.301 237.011C346.301 239.693 345.778 242.051 344.733 244.085C343.688 246.108 342.199 247.687 340.267 248.824C338.347 249.949 336.062 250.511 333.415 250.511ZM333.449 244.886C334.653 244.886 335.659 244.545 336.466 243.864C337.273 243.17 337.881 242.227 338.29 241.034C338.71 239.841 338.92 238.483 338.92 236.96C338.92 235.438 338.71 234.08 338.29 232.886C337.881 231.693 337.273 230.75 336.466 230.057C335.659 229.364 334.653 229.017 333.449 229.017C332.233 229.017 331.21 229.364 330.381 230.057C329.563 230.75 328.943 231.693 328.523 232.886C328.114 234.08 327.909 235.438 327.909 236.96C327.909 238.483 328.114 239.841 328.523 241.034C328.943 242.227 329.563 243.17 330.381 243.864C331.21 244.545 332.233 244.886 333.449 244.886ZM364.949 223.818V229.273H349.182V223.818H364.949ZM352.761 217.545H360.023V241.955C360.023 242.625 360.125 243.148 360.33 243.523C360.534 243.886 360.818 244.142 361.182 244.29C361.557 244.437 361.989 244.511 362.477 244.511C362.818 244.511 363.159 244.483 363.5 244.426C363.841 244.358 364.102 244.307 364.284 244.273L365.426 249.676C365.063 249.79 364.551 249.92 363.892 250.068C363.233 250.227 362.432 250.324 361.489 250.358C359.739 250.426 358.205 250.193 356.886 249.659C355.58 249.125 354.563 248.295 353.835 247.17C353.108 246.045 352.75 244.625 352.761 242.909V217.545ZM369.679 250V223.818H376.94V250H369.679ZM373.327 220.443C372.247 220.443 371.321 220.085 370.548 219.369C369.787 218.642 369.406 217.773 369.406 216.761C369.406 215.761 369.787 214.903 370.548 214.188C371.321 213.46 372.247 213.097 373.327 213.097C374.406 213.097 375.327 213.46 376.088 214.188C376.861 214.903 377.247 215.761 377.247 216.761C377.247 217.773 376.861 218.642 376.088 219.369C375.327 220.085 374.406 220.443 373.327 220.443ZM390.018 234.864V250H382.757V223.818H389.678V228.438H389.984C390.564 226.915 391.536 225.71 392.899 224.824C394.263 223.926 395.916 223.477 397.859 223.477C399.678 223.477 401.263 223.875 402.615 224.67C403.967 225.466 405.018 226.602 405.768 228.08C406.518 229.545 406.893 231.295 406.893 233.33V250H399.632V234.625C399.643 233.023 399.234 231.773 398.405 230.875C397.575 229.966 396.433 229.511 394.979 229.511C394.001 229.511 393.138 229.722 392.388 230.142C391.649 230.562 391.07 231.176 390.649 231.983C390.24 232.778 390.03 233.739 390.018 234.864ZM424.412 260.364C422.06 260.364 420.043 260.04 418.361 259.392C416.69 258.756 415.361 257.886 414.372 256.784C413.384 255.682 412.741 254.443 412.446 253.068L419.162 252.165C419.366 252.688 419.69 253.176 420.134 253.631C420.577 254.085 421.162 254.449 421.889 254.722C422.628 255.006 423.526 255.148 424.582 255.148C426.162 255.148 427.463 254.761 428.486 253.989C429.52 253.227 430.037 251.949 430.037 250.153V245.364H429.73C429.412 246.091 428.935 246.778 428.298 247.426C427.662 248.074 426.844 248.602 425.844 249.011C424.844 249.42 423.651 249.625 422.264 249.625C420.298 249.625 418.509 249.17 416.895 248.261C415.293 247.341 414.014 245.937 413.06 244.051C412.116 242.153 411.645 239.756 411.645 236.858C411.645 233.892 412.128 231.415 413.094 229.426C414.06 227.437 415.344 225.949 416.946 224.96C418.56 223.972 420.327 223.477 422.247 223.477C423.713 223.477 424.94 223.727 425.929 224.227C426.918 224.716 427.713 225.33 428.315 226.068C428.929 226.795 429.401 227.511 429.73 228.216H430.003V223.818H437.213V250.256C437.213 252.483 436.668 254.347 435.577 255.847C434.486 257.347 432.974 258.472 431.043 259.222C429.122 259.983 426.912 260.364 424.412 260.364ZM424.565 244.17C425.736 244.17 426.724 243.881 427.531 243.301C428.349 242.71 428.974 241.869 429.406 240.778C429.849 239.676 430.071 238.358 430.071 236.824C430.071 235.29 429.855 233.96 429.423 232.835C428.991 231.699 428.366 230.818 427.548 230.193C426.73 229.568 425.736 229.256 424.565 229.256C423.372 229.256 422.366 229.58 421.548 230.227C420.73 230.864 420.111 231.75 419.69 232.886C419.27 234.023 419.06 235.335 419.06 236.824C419.06 238.335 419.27 239.642 419.69 240.744C420.122 241.835 420.741 242.682 421.548 243.284C422.366 243.875 423.372 244.17 424.565 244.17Z" fill="#08FDD8"/>
</g>
<defs>
<clipPath id="clip0_9_3">
<rect width="501" height="468" rx="234" fill="white"/>
</clipPath>
</defs>
</svg>
