<svg width="501" height="468" viewBox="0 0 501 468" fill="none" xmlns="http://www.w3.org/2000/svg">
<g clip-path="url(#clip0_10_7)">
<rect width="501" height="468" rx="234" fill="white"/>
<ellipse cx="250.5" cy="234" rx="250.5" ry="234" fill="black"/>
<path d="M73.5568 244H64.2756V217.818H73.6335C76.267 217.818 78.5341 218.342 80.4347 219.391C82.3352 220.43 83.7969 221.926 84.8196 223.878C85.8509 225.83 86.3665 228.165 86.3665 230.884C86.3665 233.611 85.8509 235.955 84.8196 237.915C83.7969 239.875 82.3267 241.379 80.4091 242.428C78.5 243.476 76.2159 244 73.5568 244ZM69.8111 239.257H73.3267C74.9631 239.257 76.3395 238.967 77.456 238.388C78.581 237.8 79.4247 236.892 79.9872 235.665C80.5582 234.429 80.8438 232.835 80.8438 230.884C80.8438 228.949 80.5582 227.368 79.9872 226.141C79.4247 224.913 78.5852 224.01 77.4688 223.43C76.3523 222.851 74.9759 222.561 73.3395 222.561H69.8111V239.257ZM99.2369 244.384C97.2511 244.384 95.5337 243.962 94.0849 243.118C92.6445 242.266 91.5323 241.081 90.7482 239.564C89.9641 238.038 89.5721 236.27 89.5721 234.259C89.5721 232.23 89.9641 230.457 90.7482 228.94C91.5323 227.415 92.6445 226.23 94.0849 225.386C95.5337 224.534 97.2511 224.108 99.2369 224.108C101.223 224.108 102.936 224.534 104.376 225.386C105.825 226.23 106.941 227.415 107.725 228.94C108.51 230.457 108.902 232.23 108.902 234.259C108.902 236.27 108.51 238.038 107.725 239.564C106.941 241.081 105.825 242.266 104.376 243.118C102.936 243.962 101.223 244.384 99.2369 244.384ZM99.2624 240.165C100.166 240.165 100.92 239.909 101.525 239.398C102.13 238.878 102.586 238.17 102.893 237.276C103.208 236.381 103.366 235.362 103.366 234.22C103.366 233.078 103.208 232.06 102.893 231.165C102.586 230.27 102.13 229.562 101.525 229.043C100.92 228.523 100.166 228.263 99.2624 228.263C98.3505 228.263 97.5835 228.523 96.9613 229.043C96.3477 229.562 95.8832 230.27 95.5678 231.165C95.261 232.06 95.1076 233.078 95.1076 234.22C95.1076 235.362 95.261 236.381 95.5678 237.276C95.8832 238.17 96.3477 238.878 96.9613 239.398C97.5835 239.909 98.3505 240.165 99.2624 240.165ZM112.443 244V224.364H117.633V227.828H117.863C118.272 226.678 118.954 225.77 119.909 225.105C120.863 224.44 122.005 224.108 123.335 224.108C124.681 224.108 125.828 224.445 126.774 225.118C127.72 225.783 128.35 226.686 128.666 227.828H128.87C129.271 226.703 129.995 225.804 131.044 225.131C132.1 224.449 133.349 224.108 134.789 224.108C136.622 224.108 138.109 224.692 139.251 225.859C140.402 227.018 140.977 228.663 140.977 230.794V244H135.544V231.868C135.544 230.777 135.254 229.959 134.674 229.413C134.095 228.868 133.37 228.595 132.501 228.595C131.512 228.595 130.741 228.911 130.187 229.541C129.633 230.163 129.356 230.986 129.356 232.009V244H124.076V231.753C124.076 230.79 123.799 230.023 123.245 229.452C122.7 228.881 121.98 228.595 121.085 228.595C120.48 228.595 119.934 228.749 119.449 229.055C118.971 229.354 118.592 229.776 118.311 230.321C118.029 230.858 117.889 231.489 117.889 232.213V244H112.443ZM154.228 244.384C152.208 244.384 150.469 243.974 149.012 243.156C147.563 242.33 146.446 241.162 145.662 239.653C144.878 238.136 144.486 236.342 144.486 234.271C144.486 232.251 144.878 230.479 145.662 228.953C146.446 227.428 147.55 226.239 148.973 225.386C150.405 224.534 152.084 224.108 154.01 224.108C155.306 224.108 156.512 224.317 157.628 224.734C158.753 225.143 159.733 225.761 160.569 226.588C161.412 227.415 162.069 228.455 162.537 229.707C163.006 230.952 163.24 232.409 163.24 234.08V235.575H146.659V232.2H158.114C158.114 231.416 157.944 230.722 157.603 230.116C157.262 229.511 156.789 229.038 156.184 228.697C155.587 228.348 154.892 228.173 154.1 228.173C153.273 228.173 152.54 228.365 151.901 228.749C151.27 229.124 150.776 229.631 150.418 230.27C150.06 230.901 149.877 231.604 149.868 232.379V235.588C149.868 236.56 150.047 237.399 150.405 238.107C150.772 238.814 151.287 239.359 151.952 239.743C152.617 240.126 153.405 240.318 154.317 240.318C154.922 240.318 155.476 240.233 155.979 240.062C156.482 239.892 156.912 239.636 157.27 239.295C157.628 238.955 157.901 238.537 158.088 238.043L163.125 238.375C162.87 239.585 162.346 240.642 161.553 241.545C160.769 242.44 159.755 243.139 158.51 243.642C157.275 244.136 155.847 244.384 154.228 244.384ZM183.132 229.963L178.147 230.27C178.061 229.844 177.878 229.46 177.597 229.119C177.316 228.77 176.945 228.493 176.485 228.288C176.033 228.075 175.492 227.969 174.861 227.969C174.017 227.969 173.306 228.148 172.726 228.506C172.147 228.855 171.857 229.324 171.857 229.912C171.857 230.381 172.044 230.777 172.419 231.101C172.794 231.425 173.438 231.685 174.35 231.881L177.904 232.597C179.813 232.989 181.236 233.619 182.174 234.489C183.111 235.358 183.58 236.5 183.58 237.915C183.58 239.202 183.201 240.331 182.442 241.303C181.692 242.274 180.661 243.033 179.348 243.578C178.044 244.115 176.54 244.384 174.836 244.384C172.236 244.384 170.165 243.842 168.623 242.76C167.088 241.669 166.189 240.186 165.925 238.311L171.282 238.03C171.444 238.822 171.836 239.428 172.458 239.845C173.08 240.254 173.877 240.459 174.848 240.459C175.803 240.459 176.57 240.276 177.15 239.909C177.738 239.534 178.036 239.053 178.044 238.464C178.036 237.97 177.827 237.565 177.418 237.25C177.009 236.926 176.378 236.679 175.526 236.509L172.125 235.831C170.208 235.447 168.78 234.783 167.843 233.837C166.914 232.891 166.449 231.685 166.449 230.219C166.449 228.957 166.79 227.871 167.472 226.959C168.162 226.047 169.13 225.344 170.374 224.849C171.627 224.355 173.093 224.108 174.772 224.108C177.252 224.108 179.203 224.632 180.627 225.68C182.059 226.729 182.894 228.156 183.132 229.963ZM197.454 224.364V228.455H185.629V224.364H197.454ZM188.313 219.659H193.759V237.966C193.759 238.469 193.836 238.861 193.989 239.142C194.143 239.415 194.356 239.607 194.629 239.717C194.91 239.828 195.234 239.884 195.6 239.884C195.856 239.884 196.112 239.862 196.367 239.82C196.623 239.768 196.819 239.73 196.955 239.705L197.812 243.757C197.539 243.842 197.156 243.94 196.661 244.051C196.167 244.17 195.566 244.243 194.859 244.268C193.546 244.32 192.396 244.145 191.407 243.744C190.427 243.344 189.664 242.722 189.119 241.878C188.573 241.034 188.305 239.969 188.313 238.682V219.659ZM201.001 244V224.364H206.447V244H201.001ZM203.737 221.832C202.928 221.832 202.233 221.564 201.653 221.027C201.082 220.482 200.797 219.83 200.797 219.071C200.797 218.321 201.082 217.678 201.653 217.141C202.233 216.595 202.928 216.322 203.737 216.322C204.547 216.322 205.237 216.595 205.808 217.141C206.388 217.678 206.678 218.321 206.678 219.071C206.678 219.83 206.388 220.482 205.808 221.027C205.237 221.564 204.547 221.832 203.737 221.832ZM219.682 244.384C217.671 244.384 215.941 243.957 214.492 243.105C213.051 242.244 211.944 241.051 211.168 239.526C210.401 238 210.017 236.244 210.017 234.259C210.017 232.247 210.405 230.483 211.181 228.966C211.965 227.44 213.077 226.251 214.517 225.399C215.958 224.538 217.671 224.108 219.657 224.108C221.37 224.108 222.87 224.419 224.157 225.041C225.444 225.663 226.462 226.537 227.212 227.662C227.962 228.787 228.375 230.108 228.452 231.625H223.313C223.168 230.645 222.784 229.857 222.162 229.26C221.549 228.655 220.743 228.352 219.746 228.352C218.902 228.352 218.165 228.582 217.534 229.043C216.912 229.494 216.426 230.155 216.077 231.024C215.728 231.893 215.553 232.946 215.553 234.182C215.553 235.435 215.723 236.5 216.064 237.378C216.414 238.256 216.904 238.925 217.534 239.385C218.165 239.845 218.902 240.075 219.746 240.075C220.368 240.075 220.926 239.947 221.421 239.692C221.924 239.436 222.337 239.065 222.661 238.58C222.993 238.085 223.211 237.493 223.313 236.803H228.452C228.367 238.303 227.958 239.624 227.225 240.766C226.5 241.899 225.499 242.786 224.221 243.425C222.942 244.064 221.429 244.384 219.682 244.384ZM240.373 244V217.818H258.015V222.382H245.909V228.621H257.108V233.185H245.909V239.436H258.066V244H240.373ZM267.76 217.818V244H262.314V217.818H267.76ZM281.071 244.384C279.051 244.384 277.313 243.974 275.855 243.156C274.407 242.33 273.29 241.162 272.506 239.653C271.722 238.136 271.33 236.342 271.33 234.271C271.33 232.251 271.722 230.479 272.506 228.953C273.29 227.428 274.394 226.239 275.817 225.386C277.249 224.534 278.928 224.108 280.854 224.108C282.15 224.108 283.355 224.317 284.472 224.734C285.597 225.143 286.577 225.761 287.412 226.588C288.256 227.415 288.912 228.455 289.381 229.707C289.85 230.952 290.084 232.409 290.084 234.08V235.575H273.503V232.2H284.958C284.958 231.416 284.787 230.722 284.446 230.116C284.105 229.511 283.632 229.038 283.027 228.697C282.431 228.348 281.736 228.173 280.944 228.173C280.117 228.173 279.384 228.365 278.745 228.749C278.114 229.124 277.62 229.631 277.262 230.27C276.904 230.901 276.721 231.604 276.712 232.379V235.588C276.712 236.56 276.891 237.399 277.249 238.107C277.615 238.814 278.131 239.359 278.796 239.743C279.461 240.126 280.249 240.318 281.161 240.318C281.766 240.318 282.32 240.233 282.823 240.062C283.326 239.892 283.756 239.636 284.114 239.295C284.472 238.955 284.745 238.537 284.932 238.043L289.969 238.375C289.713 239.585 289.189 240.642 288.397 241.545C287.613 242.44 286.598 243.139 285.354 243.642C284.118 244.136 282.691 244.384 281.071 244.384ZM302.51 244.384C300.499 244.384 298.769 243.957 297.32 243.105C295.88 242.244 294.772 241.051 293.996 239.526C293.229 238 292.846 236.244 292.846 234.259C292.846 232.247 293.233 230.483 294.009 228.966C294.793 227.44 295.905 226.251 297.346 225.399C298.786 224.538 300.499 224.108 302.485 224.108C304.198 224.108 305.698 224.419 306.985 225.041C308.272 225.663 309.29 226.537 310.04 227.662C310.79 228.787 311.203 230.108 311.28 231.625H306.141C305.996 230.645 305.613 229.857 304.99 229.26C304.377 228.655 303.571 228.352 302.574 228.352C301.73 228.352 300.993 228.582 300.363 229.043C299.74 229.494 299.255 230.155 298.905 231.024C298.556 231.893 298.381 232.946 298.381 234.182C298.381 235.435 298.551 236.5 298.892 237.378C299.242 238.256 299.732 238.925 300.363 239.385C300.993 239.845 301.73 240.075 302.574 240.075C303.196 240.075 303.755 239.947 304.249 239.692C304.752 239.436 305.165 239.065 305.489 238.58C305.821 238.085 306.039 237.493 306.141 236.803H311.28C311.195 238.303 310.786 239.624 310.053 240.766C309.328 241.899 308.327 242.786 307.049 243.425C305.77 244.064 304.257 244.384 302.51 244.384ZM325.212 224.364V228.455H313.386V224.364H325.212ZM316.071 219.659H321.517V237.966C321.517 238.469 321.594 238.861 321.747 239.142C321.901 239.415 322.114 239.607 322.386 239.717C322.668 239.828 322.991 239.884 323.358 239.884C323.614 239.884 323.869 239.862 324.125 239.82C324.381 239.768 324.577 239.73 324.713 239.705L325.57 243.757C325.297 243.842 324.913 243.94 324.419 244.051C323.925 244.17 323.324 244.243 322.616 244.268C321.304 244.32 320.153 244.145 319.165 243.744C318.185 243.344 317.422 242.722 316.876 241.878C316.331 241.034 316.063 239.969 316.071 238.682V219.659ZM328.759 244V224.364H334.039V227.79H334.244C334.602 226.571 335.202 225.651 336.046 225.028C336.89 224.398 337.862 224.082 338.961 224.082C339.234 224.082 339.528 224.099 339.843 224.134C340.158 224.168 340.435 224.214 340.674 224.274V229.107C340.418 229.03 340.065 228.962 339.613 228.902C339.161 228.842 338.748 228.812 338.373 228.812C337.572 228.812 336.856 228.987 336.225 229.337C335.603 229.678 335.109 230.155 334.742 230.768C334.384 231.382 334.205 232.089 334.205 232.891V244H328.759ZM343.49 244V224.364H348.936V244H343.49ZM346.225 221.832C345.416 221.832 344.721 221.564 344.142 221.027C343.571 220.482 343.285 219.83 343.285 219.071C343.285 218.321 343.571 217.678 344.142 217.141C344.721 216.595 345.416 216.322 346.225 216.322C347.035 216.322 347.725 216.595 348.297 217.141C348.876 217.678 349.166 218.321 349.166 219.071C349.166 219.83 348.876 220.482 348.297 221.027C347.725 221.564 347.035 221.832 346.225 221.832ZM362.17 244.384C360.159 244.384 358.429 243.957 356.98 243.105C355.54 242.244 354.432 241.051 353.656 239.526C352.889 238 352.506 236.244 352.506 234.259C352.506 232.247 352.893 230.483 353.669 228.966C354.453 227.44 355.565 226.251 357.006 225.399C358.446 224.538 360.159 224.108 362.145 224.108C363.858 224.108 365.358 224.419 366.645 225.041C367.932 225.663 368.95 226.537 369.7 227.662C370.45 228.787 370.864 230.108 370.94 231.625H365.801C365.656 230.645 365.273 229.857 364.651 229.26C364.037 228.655 363.232 228.352 362.234 228.352C361.391 228.352 360.653 228.582 360.023 229.043C359.401 229.494 358.915 230.155 358.565 231.024C358.216 231.893 358.041 232.946 358.041 234.182C358.041 235.435 358.212 236.5 358.553 237.378C358.902 238.256 359.392 238.925 360.023 239.385C360.653 239.845 361.391 240.075 362.234 240.075C362.857 240.075 363.415 239.947 363.909 239.692C364.412 239.436 364.825 239.065 365.149 238.58C365.482 238.085 365.699 237.493 365.801 236.803H370.94C370.855 238.303 370.446 239.624 369.713 240.766C368.989 241.899 367.987 242.786 366.709 243.425C365.43 244.064 363.918 244.384 362.17 244.384ZM374.427 244V224.364H379.873V244H374.427ZM377.163 221.832C376.353 221.832 375.659 221.564 375.079 221.027C374.508 220.482 374.223 219.83 374.223 219.071C374.223 218.321 374.508 217.678 375.079 217.141C375.659 216.595 376.353 216.322 377.163 216.322C377.973 216.322 378.663 216.595 379.234 217.141C379.814 217.678 380.103 218.321 380.103 219.071C380.103 219.83 379.814 220.482 379.234 221.027C378.663 221.564 377.973 221.832 377.163 221.832ZM394.68 224.364V228.455H382.855V224.364H394.68ZM385.54 219.659H390.986V237.966C390.986 238.469 391.063 238.861 391.216 239.142C391.369 239.415 391.582 239.607 391.855 239.717C392.136 239.828 392.46 239.884 392.827 239.884C393.082 239.884 393.338 239.862 393.594 239.82C393.849 239.768 394.045 239.73 394.182 239.705L395.038 243.757C394.766 243.842 394.382 243.94 393.888 244.051C393.393 244.17 392.793 244.243 392.085 244.268C390.773 244.32 389.622 244.145 388.634 243.744C387.653 243.344 386.891 242.722 386.345 241.878C385.8 241.034 385.531 239.969 385.54 238.682V219.659ZM401.59 251.364C400.9 251.364 400.252 251.308 399.647 251.197C399.05 251.095 398.556 250.963 398.164 250.801L399.391 246.736C400.031 246.932 400.606 247.038 401.117 247.055C401.637 247.072 402.085 246.953 402.46 246.697C402.843 246.442 403.154 246.007 403.393 245.393L403.712 244.562L396.668 224.364H402.396L406.461 238.784H406.665L410.769 224.364H416.535L408.903 246.122C408.536 247.179 408.038 248.099 407.407 248.884C406.785 249.676 405.996 250.286 405.042 250.712C404.087 251.146 402.937 251.364 401.59 251.364Z" fill="#08FDD8"/>
</g>
<defs>
<clipPath id="clip0_10_7">
<rect width="501" height="468" rx="234" fill="white"/>
</clipPath>
</defs>
</svg>
