<svg id="visual" viewBox="0 0 540 960" width="540" height="960" xmlns="http://www.w3.org/2000/svg" xmlns:xlink="http://www.w3.org/1999/xlink" version="1.1"><rect x="0" y="0" width="540" height="960" fill="#002233"></rect><path d="M42 0L35.8 8.5C29.7 17 17.3 34 15.7 50.8C14 67.7 23 84.3 27.2 101.2C31.3 118 30.7 135 28.7 151.8C26.7 168.7 23.3 185.3 18.8 202.2C14.3 219 8.7 236 5.8 252.8C3 269.7 3 286.3 6.8 303.2C10.7 320 18.3 337 26.5 353.8C34.7 370.7 43.3 387.3 46.3 404.2C49.3 421 46.7 438 41.5 454.8C36.3 471.7 28.7 488.3 29 505.2C29.3 522 37.7 539 42.3 555.8C47 572.7 48 589.3 48.8 606.2C49.7 623 50.3 640 43 656.8C35.7 673.7 20.3 690.3 17.5 707.2C14.7 724 24.3 741 31.7 757.8C39 774.7 44 791.3 44.5 808.2C45 825 41 842 39.7 858.8C38.3 875.7 39.7 892.3 36.3 909.2C33 926 25 943 21 951.5L17 960L0 960L0 951.5C0 943 0 926 0 909.2C0 892.3 0 875.7 0 858.8C0 842 0 825 0 808.2C0 791.3 0 774.7 0 757.8C0 741 0 724 0 707.2C0 690.3 0 673.7 0 656.8C0 640 0 623 0 606.2C0 589.3 0 572.7 0 555.8C0 539 0 522 0 505.2C0 488.3 0 471.7 0 454.8C0 438 0 421 0 404.2C0 387.3 0 370.7 0 353.8C0 337 0 320 0 303.2C0 286.3 0 269.7 0 252.8C0 236 0 219 0 202.2C0 185.3 0 168.7 0 151.8C0 135 0 118 0 101.2C0 84.3 0 67.7 0 50.8C0 34 0 17 0 8.5L0 0Z" fill="#0066FF" stroke-linecap="round" stroke-linejoin="miter"></path></svg>