<svg width="501" height="468" viewBox="0 0 501 468" fill="none" xmlns="http://www.w3.org/2000/svg">
<g clip-path="url(#clip0_9_3)">
<rect width="501" height="468" rx="234" fill="white"/>
<ellipse cx="250.5" cy="234" rx="250.5" ry="234" fill="black"/>
<path d="M125.659 230V195.091H139.432C142.068 195.091 144.318 195.562 146.182 196.506C148.057 197.437 149.483 198.761 150.46 200.477C151.449 202.182 151.943 204.187 151.943 206.494C151.943 208.812 151.443 210.807 150.443 212.477C149.443 214.136 147.994 215.409 146.097 216.295C144.21 217.182 141.926 217.625 139.244 217.625H130.023V211.693H138.051C139.46 211.693 140.631 211.5 141.562 211.114C142.494 210.727 143.188 210.148 143.642 209.375C144.108 208.602 144.341 207.642 144.341 206.494C144.341 205.335 144.108 204.358 143.642 203.562C143.188 202.767 142.489 202.165 141.545 201.756C140.614 201.335 139.438 201.125 138.017 201.125H133.04V230H125.659ZM144.511 214.114L153.188 230H145.04L136.551 214.114H144.511ZM168.533 230.511C165.839 230.511 163.521 229.966 161.578 228.875C159.646 227.773 158.158 226.216 157.112 224.205C156.067 222.182 155.544 219.79 155.544 217.028C155.544 214.335 156.067 211.972 157.112 209.938C158.158 207.903 159.629 206.318 161.527 205.182C163.436 204.045 165.675 203.477 168.243 203.477C169.97 203.477 171.578 203.756 173.067 204.312C174.567 204.858 175.874 205.682 176.987 206.784C178.112 207.886 178.987 209.273 179.612 210.943C180.237 212.602 180.55 214.545 180.55 216.773V218.767H158.442V214.267H173.714C173.714 213.222 173.487 212.295 173.033 211.489C172.578 210.682 171.947 210.051 171.141 209.597C170.345 209.131 169.419 208.898 168.362 208.898C167.26 208.898 166.283 209.153 165.43 209.665C164.589 210.165 163.93 210.841 163.453 211.693C162.976 212.534 162.732 213.472 162.72 214.506V218.784C162.72 220.08 162.959 221.199 163.436 222.142C163.925 223.085 164.612 223.812 165.499 224.324C166.385 224.835 167.436 225.091 168.652 225.091C169.459 225.091 170.197 224.977 170.868 224.75C171.538 224.523 172.112 224.182 172.589 223.727C173.067 223.273 173.43 222.716 173.68 222.057L180.396 222.5C180.055 224.114 179.357 225.523 178.3 226.727C177.254 227.92 175.902 228.852 174.243 229.523C172.595 230.182 170.692 230.511 168.533 230.511ZM165.464 200.443L169.078 192.688H175.794L170.595 200.443H165.464ZM185.288 239.818V203.818H192.447V208.216H192.771C193.089 207.511 193.55 206.795 194.152 206.068C194.766 205.33 195.561 204.716 196.538 204.227C197.527 203.727 198.754 203.477 200.22 203.477C202.129 203.477 203.891 203.977 205.504 204.977C207.118 205.966 208.408 207.46 209.374 209.46C210.339 211.449 210.822 213.943 210.822 216.943C210.822 219.864 210.351 222.33 209.408 224.341C208.476 226.341 207.203 227.858 205.589 228.892C203.987 229.915 202.192 230.426 200.203 230.426C198.794 230.426 197.595 230.193 196.607 229.727C195.629 229.261 194.828 228.676 194.203 227.972C193.578 227.256 193.101 226.534 192.771 225.807H192.55V239.818H185.288ZM192.396 216.909C192.396 218.466 192.612 219.824 193.044 220.983C193.476 222.142 194.101 223.045 194.919 223.693C195.737 224.33 196.732 224.648 197.902 224.648C199.084 224.648 200.084 224.324 200.902 223.676C201.72 223.017 202.339 222.108 202.76 220.949C203.192 219.778 203.408 218.432 203.408 216.909C203.408 215.398 203.197 214.068 202.777 212.92C202.357 211.773 201.737 210.875 200.919 210.227C200.101 209.58 199.095 209.256 197.902 209.256C196.72 209.256 195.72 209.568 194.902 210.193C194.095 210.818 193.476 211.705 193.044 212.852C192.612 214 192.396 215.352 192.396 216.909ZM223.129 230.494C221.459 230.494 219.97 230.205 218.663 229.625C217.357 229.034 216.322 228.165 215.561 227.017C214.811 225.858 214.436 224.415 214.436 222.688C214.436 221.233 214.703 220.011 215.237 219.023C215.771 218.034 216.499 217.239 217.419 216.636C218.339 216.034 219.385 215.58 220.555 215.273C221.737 214.966 222.976 214.75 224.271 214.625C225.794 214.466 227.021 214.318 227.953 214.182C228.885 214.034 229.561 213.818 229.982 213.534C230.402 213.25 230.612 212.83 230.612 212.273V212.17C230.612 211.091 230.271 210.256 229.589 209.665C228.919 209.074 227.964 208.778 226.726 208.778C225.419 208.778 224.379 209.068 223.607 209.648C222.834 210.216 222.322 210.932 222.072 211.795L215.357 211.25C215.697 209.659 216.368 208.284 217.368 207.125C218.368 205.955 219.658 205.057 221.237 204.432C222.828 203.795 224.669 203.477 226.76 203.477C228.214 203.477 229.607 203.648 230.936 203.989C232.277 204.33 233.464 204.858 234.499 205.574C235.544 206.29 236.368 207.21 236.97 208.335C237.572 209.449 237.874 210.784 237.874 212.341V230H230.987V226.369H230.783C230.362 227.188 229.8 227.909 229.095 228.534C228.391 229.148 227.544 229.631 226.555 229.983C225.567 230.324 224.425 230.494 223.129 230.494ZM225.209 225.483C226.277 225.483 227.22 225.273 228.038 224.852C228.857 224.42 229.499 223.841 229.964 223.114C230.43 222.386 230.663 221.562 230.663 220.642V217.864C230.436 218.011 230.124 218.148 229.726 218.273C229.339 218.386 228.902 218.494 228.413 218.597C227.925 218.687 227.436 218.773 226.947 218.852C226.459 218.92 226.016 218.983 225.618 219.04C224.766 219.165 224.021 219.364 223.385 219.636C222.749 219.909 222.254 220.278 221.902 220.744C221.55 221.199 221.374 221.767 221.374 222.449C221.374 223.438 221.732 224.193 222.447 224.716C223.175 225.227 224.095 225.483 225.209 225.483ZM243.507 230V203.818H250.547V208.386H250.82C251.297 206.761 252.098 205.534 253.223 204.705C254.348 203.864 255.643 203.443 257.109 203.443C257.473 203.443 257.865 203.466 258.286 203.511C258.706 203.557 259.075 203.619 259.393 203.699V210.142C259.053 210.04 258.581 209.949 257.979 209.869C257.376 209.79 256.825 209.75 256.325 209.75C255.257 209.75 254.303 209.983 253.462 210.449C252.632 210.903 251.973 211.54 251.484 212.358C251.007 213.176 250.768 214.119 250.768 215.188V230H243.507ZM269.864 230.494C268.193 230.494 266.705 230.205 265.398 229.625C264.091 229.034 263.057 228.165 262.295 227.017C261.545 225.858 261.17 224.415 261.17 222.688C261.17 221.233 261.438 220.011 261.972 219.023C262.506 218.034 263.233 217.239 264.153 216.636C265.074 216.034 266.119 215.58 267.29 215.273C268.472 214.966 269.71 214.75 271.006 214.625C272.528 214.466 273.756 214.318 274.688 214.182C275.619 214.034 276.295 213.818 276.716 213.534C277.136 213.25 277.347 212.83 277.347 212.273V212.17C277.347 211.091 277.006 210.256 276.324 209.665C275.653 209.074 274.699 208.778 273.46 208.778C272.153 208.778 271.114 209.068 270.341 209.648C269.568 210.216 269.057 210.932 268.807 211.795L262.091 211.25C262.432 209.659 263.102 208.284 264.102 207.125C265.102 205.955 266.392 205.057 267.972 204.432C269.563 203.795 271.403 203.477 273.494 203.477C274.949 203.477 276.341 203.648 277.67 203.989C279.011 204.33 280.199 204.858 281.233 205.574C282.278 206.29 283.102 207.21 283.705 208.335C284.307 209.449 284.608 210.784 284.608 212.341V230H277.722V226.369H277.517C277.097 227.188 276.534 227.909 275.83 228.534C275.125 229.148 274.278 229.631 273.29 229.983C272.301 230.324 271.159 230.494 269.864 230.494ZM271.943 225.483C273.011 225.483 273.955 225.273 274.773 224.852C275.591 224.42 276.233 223.841 276.699 223.114C277.165 222.386 277.398 221.562 277.398 220.642V217.864C277.17 218.011 276.858 218.148 276.46 218.273C276.074 218.386 275.636 218.494 275.148 218.597C274.659 218.687 274.17 218.773 273.682 218.852C273.193 218.92 272.75 218.983 272.352 219.04C271.5 219.165 270.756 219.364 270.119 219.636C269.483 219.909 268.989 220.278 268.636 220.744C268.284 221.199 268.108 221.767 268.108 222.449C268.108 223.438 268.466 224.193 269.182 224.716C269.909 225.227 270.83 225.483 271.943 225.483ZM304.168 203.818V209.273H288.401V203.818H304.168ZM291.98 197.545H299.241V221.955C299.241 222.625 299.344 223.148 299.548 223.523C299.753 223.886 300.037 224.142 300.401 224.29C300.776 224.437 301.207 224.511 301.696 224.511C302.037 224.511 302.378 224.483 302.719 224.426C303.06 224.358 303.321 224.307 303.503 224.273L304.645 229.676C304.281 229.79 303.77 229.92 303.111 230.068C302.452 230.227 301.651 230.324 300.707 230.358C298.957 230.426 297.423 230.193 296.105 229.659C294.798 229.125 293.781 228.295 293.054 227.17C292.327 226.045 291.969 224.625 291.98 222.909V197.545ZM308.898 230V203.818H316.159V230H308.898ZM312.545 200.443C311.466 200.443 310.54 200.085 309.767 199.369C309.006 198.642 308.625 197.773 308.625 196.761C308.625 195.761 309.006 194.903 309.767 194.188C310.54 193.46 311.466 193.097 312.545 193.097C313.625 193.097 314.545 193.46 315.307 194.188C316.08 194.903 316.466 195.761 316.466 196.761C316.466 197.773 316.08 198.642 315.307 199.369C314.545 200.085 313.625 200.443 312.545 200.443ZM333.805 230.511C331.158 230.511 328.868 229.949 326.936 228.824C325.016 227.687 323.533 226.108 322.487 224.085C321.442 222.051 320.919 219.693 320.919 217.011C320.919 214.307 321.442 211.943 322.487 209.92C323.533 207.886 325.016 206.307 326.936 205.182C328.868 204.045 331.158 203.477 333.805 203.477C336.453 203.477 338.737 204.045 340.658 205.182C342.589 206.307 344.078 207.886 345.124 209.92C346.169 211.943 346.692 214.307 346.692 217.011C346.692 219.693 346.169 222.051 345.124 224.085C344.078 226.108 342.589 227.687 340.658 228.824C338.737 229.949 336.453 230.511 333.805 230.511ZM333.839 224.886C335.044 224.886 336.05 224.545 336.857 223.864C337.663 223.17 338.271 222.227 338.68 221.034C339.101 219.841 339.311 218.483 339.311 216.96C339.311 215.438 339.101 214.08 338.68 212.886C338.271 211.693 337.663 210.75 336.857 210.057C336.05 209.364 335.044 209.017 333.839 209.017C332.624 209.017 331.601 209.364 330.771 210.057C329.953 210.75 329.334 211.693 328.913 212.886C328.504 214.08 328.3 215.438 328.3 216.96C328.3 218.483 328.504 219.841 328.913 221.034C329.334 222.227 329.953 223.17 330.771 223.864C331.601 224.545 332.624 224.886 333.839 224.886ZM358.675 214.864V230H351.413V203.818H358.334V208.438H358.641C359.22 206.915 360.192 205.71 361.555 204.824C362.919 203.926 364.572 203.477 366.516 203.477C368.334 203.477 369.919 203.875 371.271 204.67C372.624 205.466 373.675 206.602 374.425 208.08C375.175 209.545 375.55 211.295 375.55 213.33V230H368.288V214.625C368.3 213.023 367.891 211.773 367.061 210.875C366.232 209.966 365.089 209.511 363.635 209.511C362.658 209.511 361.794 209.722 361.044 210.142C360.305 210.562 359.726 211.176 359.305 211.983C358.896 212.778 358.686 213.739 358.675 214.864Z" fill="#08FDD8"/>
</g>
<defs>
<clipPath id="clip0_9_3">
<rect width="501" height="468" rx="234" fill="white"/>
</clipPath>
</defs>
</svg>
