<svg width="501" height="468" viewBox="0 0 501 468" fill="none" xmlns="http://www.w3.org/2000/svg">
<g clip-path="url(#clip0_10_7)">
<rect width="501" height="468" rx="234" fill="white"/>
<ellipse cx="250.5" cy="234" rx="250.5" ry="234" fill="black"/>
<path d="M64.2756 244V217.818H81.9176V222.382H69.8111V228.621H81.0099V233.185H69.8111V239.436H81.9688V244H64.2756ZM71.179 215.287L73.8892 209.47H78.9261L75.027 215.287H71.179ZM91.6623 217.818V244H86.2163V217.818H91.6623ZM104.974 244.384C102.954 244.384 101.215 243.974 99.7578 243.156C98.3089 242.33 97.1925 241.162 96.4084 239.653C95.6243 238.136 95.2322 236.342 95.2322 234.271C95.2322 232.251 95.6243 230.479 96.4084 228.953C97.1925 227.428 98.2962 226.239 99.7195 225.386C101.151 224.534 102.83 224.108 104.756 224.108C106.052 224.108 107.258 224.317 108.374 224.734C109.499 225.143 110.479 225.761 111.315 226.588C112.158 227.415 112.815 228.455 113.283 229.707C113.752 230.952 113.987 232.409 113.987 234.08V235.575H97.4055V232.2H108.86C108.86 231.416 108.69 230.722 108.349 230.116C108.008 229.511 107.535 229.038 106.93 228.697C106.333 228.348 105.638 228.173 104.846 228.173C104.019 228.173 103.286 228.365 102.647 228.749C102.016 229.124 101.522 229.631 101.164 230.27C100.806 230.901 100.623 231.604 100.614 232.379V235.588C100.614 236.56 100.793 237.399 101.151 238.107C101.518 238.814 102.033 239.359 102.698 239.743C103.363 240.126 104.151 240.318 105.063 240.318C105.668 240.318 106.222 240.233 106.725 240.062C107.228 239.892 107.658 239.636 108.016 239.295C108.374 238.955 108.647 238.537 108.835 238.043L113.871 238.375C113.616 239.585 113.092 240.642 112.299 241.545C111.515 242.44 110.501 243.139 109.256 243.642C108.021 244.136 106.593 244.384 104.974 244.384ZM126.413 244.384C124.401 244.384 122.671 243.957 121.222 243.105C119.782 242.244 118.674 241.051 117.898 239.526C117.131 238 116.748 236.244 116.748 234.259C116.748 232.247 117.136 230.483 117.911 228.966C118.695 227.44 119.808 226.251 121.248 225.399C122.688 224.538 124.401 224.108 126.387 224.108C128.1 224.108 129.6 224.419 130.887 225.041C132.174 225.663 133.192 226.537 133.942 227.662C134.692 228.787 135.106 230.108 135.183 231.625H130.043C129.898 230.645 129.515 229.857 128.893 229.26C128.279 228.655 127.474 228.352 126.477 228.352C125.633 228.352 124.896 228.582 124.265 229.043C123.643 229.494 123.157 230.155 122.808 231.024C122.458 231.893 122.283 232.946 122.283 234.182C122.283 235.435 122.454 236.5 122.795 237.378C123.144 238.256 123.634 238.925 124.265 239.385C124.896 239.845 125.633 240.075 126.477 240.075C127.099 240.075 127.657 239.947 128.151 239.692C128.654 239.436 129.067 239.065 129.391 238.58C129.724 238.085 129.941 237.493 130.043 236.803H135.183C135.097 238.303 134.688 239.624 133.955 240.766C133.231 241.899 132.229 242.786 130.951 243.425C129.673 244.064 128.16 244.384 126.413 244.384ZM149.114 224.364V228.455H137.289V224.364H149.114ZM139.973 219.659H145.419V237.966C145.419 238.469 145.496 238.861 145.65 239.142C145.803 239.415 146.016 239.607 146.289 239.717C146.57 239.828 146.894 239.884 147.26 239.884C147.516 239.884 147.772 239.862 148.027 239.82C148.283 239.768 148.479 239.73 148.615 239.705L149.472 243.757C149.199 243.842 148.816 243.94 148.321 244.051C147.827 244.17 147.226 244.243 146.519 244.268C145.206 244.32 144.056 244.145 143.067 243.744C142.087 243.344 141.324 242.722 140.779 241.878C140.233 241.034 139.965 239.969 139.973 238.682V219.659ZM152.662 244V224.364H157.941V227.79H158.146C158.504 226.571 159.105 225.651 159.949 225.028C160.792 224.398 161.764 224.082 162.863 224.082C163.136 224.082 163.43 224.099 163.745 224.134C164.061 224.168 164.338 224.214 164.576 224.274V229.107C164.321 229.03 163.967 228.962 163.515 228.902C163.064 228.842 162.65 228.812 162.275 228.812C161.474 228.812 160.758 228.987 160.127 229.337C159.505 229.678 159.011 230.155 158.645 230.768C158.287 231.382 158.108 232.089 158.108 232.891V244H152.662ZM167.392 244V224.364H172.838V244H167.392ZM170.128 221.832C169.318 221.832 168.624 221.564 168.044 221.027C167.473 220.482 167.188 219.83 167.188 219.071C167.188 218.321 167.473 217.678 168.044 217.141C168.624 216.595 169.318 216.322 170.128 216.322C170.938 216.322 171.628 216.595 172.199 217.141C172.778 217.678 173.068 218.321 173.068 219.071C173.068 219.83 172.778 220.482 172.199 221.027C171.628 221.564 170.938 221.832 170.128 221.832ZM186.073 244.384C184.061 244.384 182.331 243.957 180.882 243.105C179.442 242.244 178.334 241.051 177.559 239.526C176.792 238 176.408 236.244 176.408 234.259C176.408 232.247 176.796 230.483 177.571 228.966C178.355 227.44 179.468 226.251 180.908 225.399C182.348 224.538 184.061 224.108 186.047 224.108C187.76 224.108 189.26 224.419 190.547 225.041C191.834 225.663 192.853 226.537 193.603 227.662C194.353 228.787 194.766 230.108 194.843 231.625H189.703C189.559 230.645 189.175 229.857 188.553 229.26C187.939 228.655 187.134 228.352 186.137 228.352C185.293 228.352 184.556 228.582 183.925 229.043C183.303 229.494 182.817 230.155 182.468 231.024C182.118 231.893 181.944 232.946 181.944 234.182C181.944 235.435 182.114 236.5 182.455 237.378C182.804 238.256 183.294 238.925 183.925 239.385C184.556 239.845 185.293 240.075 186.137 240.075C186.759 240.075 187.317 239.947 187.811 239.692C188.314 239.436 188.728 239.065 189.051 238.58C189.384 238.085 189.601 237.493 189.703 236.803H194.843C194.757 238.303 194.348 239.624 193.615 240.766C192.891 241.899 191.89 242.786 190.611 243.425C189.333 244.064 187.82 244.384 186.073 244.384ZM198.33 244V224.364H203.776V244H198.33ZM201.065 221.832C200.256 221.832 199.561 221.564 198.982 221.027C198.411 220.482 198.125 219.83 198.125 219.071C198.125 218.321 198.411 217.678 198.982 217.141C199.561 216.595 200.256 216.322 201.065 216.322C201.875 216.322 202.565 216.595 203.136 217.141C203.716 217.678 204.006 218.321 204.006 219.071C204.006 219.83 203.716 220.482 203.136 221.027C202.565 221.564 201.875 221.832 201.065 221.832ZM218.583 224.364V228.455H206.757V224.364H218.583ZM209.442 219.659H214.888V237.966C214.888 238.469 214.965 238.861 215.118 239.142C215.272 239.415 215.485 239.607 215.757 239.717C216.039 239.828 216.363 239.884 216.729 239.884C216.985 239.884 217.24 239.862 217.496 239.82C217.752 239.768 217.948 239.73 218.084 239.705L218.941 243.757C218.668 243.842 218.284 243.94 217.79 244.051C217.296 244.17 216.695 244.243 215.988 244.268C214.675 244.32 213.525 244.145 212.536 243.744C211.556 243.344 210.793 242.722 210.248 241.878C209.702 241.034 209.434 239.969 209.442 238.682V219.659ZM230.868 244.384C228.848 244.384 227.11 243.974 225.652 243.156C224.203 242.33 223.087 241.162 222.303 239.653C221.519 238.136 221.127 236.342 221.127 234.271C221.127 232.251 221.519 230.479 222.303 228.953C223.087 227.428 224.191 226.239 225.614 225.386C227.046 224.534 228.725 224.108 230.651 224.108C231.946 224.108 233.152 224.317 234.269 224.734C235.394 225.143 236.374 225.761 237.209 226.588C238.053 227.415 238.709 228.455 239.178 229.707C239.647 230.952 239.881 232.409 239.881 234.08V235.575H223.3V232.2H234.755C234.755 231.416 234.584 230.722 234.243 230.116C233.902 229.511 233.429 229.038 232.824 228.697C232.228 228.348 231.533 228.173 230.74 228.173C229.914 228.173 229.181 228.365 228.542 228.749C227.911 229.124 227.417 229.631 227.059 230.27C226.701 230.901 226.517 231.604 226.509 232.379V235.588C226.509 236.56 226.688 237.399 227.046 238.107C227.412 238.814 227.928 239.359 228.593 239.743C229.257 240.126 230.046 240.318 230.958 240.318C231.563 240.318 232.117 240.233 232.62 240.062C233.123 239.892 233.553 239.636 233.911 239.295C234.269 238.955 234.542 238.537 234.729 238.043L239.766 238.375C239.51 239.585 238.986 240.642 238.194 241.545C237.409 242.44 236.395 243.139 235.151 243.642C233.915 244.136 232.488 244.384 230.868 244.384ZM228.567 221.832L231.277 216.016H236.314L232.415 221.832H228.567ZM261.151 244H251.869V217.818H261.227C263.861 217.818 266.128 218.342 268.028 219.391C269.929 220.43 271.391 221.926 272.413 223.878C273.445 225.83 273.96 228.165 273.96 230.884C273.96 233.611 273.445 235.955 272.413 237.915C271.391 239.875 269.92 241.379 268.003 242.428C266.094 243.476 263.81 244 261.151 244ZM257.405 239.257H260.92C262.557 239.257 263.933 238.967 265.05 238.388C266.175 237.8 267.018 236.892 267.581 235.665C268.152 234.429 268.438 232.835 268.438 230.884C268.438 228.949 268.152 227.368 267.581 226.141C267.018 224.913 266.179 224.01 265.062 223.43C263.946 222.851 262.57 222.561 260.933 222.561H257.405V239.257ZM286.831 244.384C284.845 244.384 283.127 243.962 281.679 243.118C280.238 242.266 279.126 241.081 278.342 239.564C277.558 238.038 277.166 236.27 277.166 234.259C277.166 232.23 277.558 230.457 278.342 228.94C279.126 227.415 280.238 226.23 281.679 225.386C283.127 224.534 284.845 224.108 286.831 224.108C288.816 224.108 290.529 224.534 291.97 225.386C293.419 226.23 294.535 227.415 295.319 228.94C296.103 230.457 296.495 232.23 296.495 234.259C296.495 236.27 296.103 238.038 295.319 239.564C294.535 241.081 293.419 242.266 291.97 243.118C290.529 243.962 288.816 244.384 286.831 244.384ZM286.856 240.165C287.76 240.165 288.514 239.909 289.119 239.398C289.724 238.878 290.18 238.17 290.487 237.276C290.802 236.381 290.96 235.362 290.96 234.22C290.96 233.078 290.802 232.06 290.487 231.165C290.18 230.27 289.724 229.562 289.119 229.043C288.514 228.523 287.76 228.263 286.856 228.263C285.944 228.263 285.177 228.523 284.555 229.043C283.941 229.562 283.477 230.27 283.162 231.165C282.855 232.06 282.701 233.078 282.701 234.22C282.701 235.362 282.855 236.381 283.162 237.276C283.477 238.17 283.941 238.878 284.555 239.398C285.177 239.909 285.944 240.165 286.856 240.165ZM300.037 244V224.364H305.227V227.828H305.457C305.866 226.678 306.548 225.77 307.502 225.105C308.457 224.44 309.599 224.108 310.929 224.108C312.275 224.108 313.422 224.445 314.368 225.118C315.314 225.783 315.944 226.686 316.26 227.828H316.464C316.865 226.703 317.589 225.804 318.637 225.131C319.694 224.449 320.943 224.108 322.383 224.108C324.216 224.108 325.703 224.692 326.845 225.859C327.995 227.018 328.571 228.663 328.571 230.794V244H323.137V231.868C323.137 230.777 322.848 229.959 322.268 229.413C321.689 228.868 320.964 228.595 320.095 228.595C319.106 228.595 318.335 228.911 317.781 229.541C317.227 230.163 316.95 230.986 316.95 232.009V244H311.67V231.753C311.67 230.79 311.393 230.023 310.839 229.452C310.294 228.881 309.574 228.595 308.679 228.595C308.074 228.595 307.528 228.749 307.042 229.055C306.565 229.354 306.186 229.776 305.904 230.321C305.623 230.858 305.483 231.489 305.483 232.213V244H300.037ZM341.821 244.384C339.801 244.384 338.063 243.974 336.605 243.156C335.157 242.33 334.04 241.162 333.256 239.653C332.472 238.136 332.08 236.342 332.08 234.271C332.08 232.251 332.472 230.479 333.256 228.953C334.04 227.428 335.144 226.239 336.567 225.386C337.999 224.534 339.678 224.108 341.604 224.108C342.9 224.108 344.105 224.317 345.222 224.734C346.347 225.143 347.327 225.761 348.162 226.588C349.006 227.415 349.662 228.455 350.131 229.707C350.6 230.952 350.834 232.409 350.834 234.08V235.575H334.253V232.2H345.708C345.708 231.416 345.537 230.722 345.196 230.116C344.855 229.511 344.382 229.038 343.777 228.697C343.181 228.348 342.486 228.173 341.694 228.173C340.867 228.173 340.134 228.365 339.495 228.749C338.864 229.124 338.37 229.631 338.012 230.27C337.654 230.901 337.471 231.604 337.462 232.379V235.588C337.462 236.56 337.641 237.399 337.999 238.107C338.365 238.814 338.881 239.359 339.546 239.743C340.211 240.126 340.999 240.318 341.911 240.318C342.516 240.318 343.07 240.233 343.573 240.062C344.076 239.892 344.506 239.636 344.864 239.295C345.222 238.955 345.495 238.537 345.682 238.043L350.719 238.375C350.463 239.585 349.939 240.642 349.147 241.545C348.363 242.44 347.348 243.139 346.104 243.642C344.868 244.136 343.441 244.384 341.821 244.384ZM370.726 229.963L365.74 230.27C365.655 229.844 365.472 229.46 365.191 229.119C364.909 228.77 364.539 228.493 364.078 228.288C363.627 228.075 363.086 227.969 362.455 227.969C361.611 227.969 360.9 228.148 360.32 228.506C359.74 228.855 359.451 229.324 359.451 229.912C359.451 230.381 359.638 230.777 360.013 231.101C360.388 231.425 361.032 231.685 361.944 231.881L365.498 232.597C367.407 232.989 368.83 233.619 369.767 234.489C370.705 235.358 371.174 236.5 371.174 237.915C371.174 239.202 370.794 240.331 370.036 241.303C369.286 242.274 368.255 243.033 366.942 243.578C365.638 244.115 364.134 244.384 362.429 244.384C359.83 244.384 357.759 243.842 356.216 242.76C354.682 241.669 353.783 240.186 353.519 238.311L358.875 238.03C359.037 238.822 359.429 239.428 360.051 239.845C360.674 240.254 361.471 240.459 362.442 240.459C363.397 240.459 364.164 240.276 364.743 239.909C365.331 239.534 365.63 239.053 365.638 238.464C365.63 237.97 365.421 237.565 365.012 237.25C364.603 236.926 363.972 236.679 363.12 236.509L359.719 235.831C357.801 235.447 356.374 234.783 355.436 233.837C354.507 232.891 354.043 231.685 354.043 230.219C354.043 228.957 354.384 227.871 355.066 226.959C355.756 226.047 356.723 225.344 357.968 224.849C359.221 224.355 360.686 224.108 362.365 224.108C364.846 224.108 366.797 224.632 368.221 225.68C369.652 226.729 370.488 228.156 370.726 229.963ZM385.048 224.364V228.455H373.222V224.364H385.048ZM375.907 219.659H381.353V237.966C381.353 238.469 381.43 238.861 381.583 239.142C381.737 239.415 381.95 239.607 382.222 239.717C382.504 239.828 382.827 239.884 383.194 239.884C383.45 239.884 383.705 239.862 383.961 239.82C384.217 239.768 384.413 239.73 384.549 239.705L385.406 243.757C385.133 243.842 384.749 243.94 384.255 244.051C383.761 244.17 383.16 244.243 382.452 244.268C381.14 244.32 379.989 244.145 379.001 243.744C378.021 243.344 377.258 242.722 376.712 241.878C376.167 241.034 375.898 239.969 375.907 238.682V219.659ZM388.595 244V224.364H394.041V244H388.595ZM391.331 221.832C390.521 221.832 389.827 221.564 389.247 221.027C388.676 220.482 388.391 219.83 388.391 219.071C388.391 218.321 388.676 217.678 389.247 217.141C389.827 216.595 390.521 216.322 391.331 216.322C392.141 216.322 392.831 216.595 393.402 217.141C393.982 217.678 394.271 218.321 394.271 219.071C394.271 219.83 393.982 220.482 393.402 221.027C392.831 221.564 392.141 221.832 391.331 221.832ZM411.38 251.364V240.855H411.213C410.958 241.401 410.596 241.942 410.127 242.479C409.667 243.007 409.066 243.446 408.324 243.795C407.591 244.145 406.696 244.32 405.64 244.32C404.148 244.32 402.797 243.936 401.587 243.169C400.385 242.393 399.431 241.256 398.723 239.756C398.025 238.247 397.675 236.398 397.675 234.207C397.675 231.957 398.037 230.087 398.762 228.595C399.486 227.095 400.449 225.974 401.651 225.233C402.861 224.483 404.186 224.108 405.627 224.108C406.726 224.108 407.642 224.295 408.375 224.67C409.117 225.037 409.713 225.497 410.165 226.051C410.625 226.597 410.975 227.134 411.213 227.662H411.444V224.364H416.813V251.364H411.38ZM407.365 239.986C408.243 239.986 408.985 239.747 409.59 239.27C410.203 238.784 410.672 238.107 410.996 237.237C411.328 236.368 411.495 235.349 411.495 234.182C411.495 233.014 411.333 232 411.009 231.139C410.685 230.278 410.216 229.614 409.603 229.145C408.989 228.676 408.243 228.442 407.365 228.442C406.471 228.442 405.716 228.685 405.103 229.17C404.489 229.656 404.025 230.33 403.709 231.19C403.394 232.051 403.236 233.048 403.236 234.182C403.236 235.324 403.394 236.334 403.709 237.212C404.033 238.081 404.498 238.763 405.103 239.257C405.716 239.743 406.471 239.986 407.365 239.986ZM433.777 235.639V224.364H439.223V244H433.995V240.433H433.79C433.347 241.584 432.61 242.509 431.578 243.207C430.556 243.906 429.307 244.256 427.833 244.256C426.52 244.256 425.365 243.957 424.368 243.361C423.371 242.764 422.591 241.916 422.029 240.817C421.475 239.717 421.194 238.401 421.185 236.866V224.364H426.631V235.895C426.64 237.054 426.951 237.97 427.564 238.643C428.178 239.317 429 239.653 430.032 239.653C430.688 239.653 431.301 239.504 431.873 239.206C432.444 238.899 432.904 238.447 433.253 237.851C433.611 237.254 433.786 236.517 433.777 235.639ZM452.528 244.384C450.509 244.384 448.77 243.974 447.312 243.156C445.864 242.33 444.747 241.162 443.963 239.653C443.179 238.136 442.787 236.342 442.787 234.271C442.787 232.251 443.179 230.479 443.963 228.953C444.747 227.428 445.851 226.239 447.274 225.386C448.706 224.534 450.385 224.108 452.311 224.108C453.607 224.108 454.813 224.317 455.929 224.734C457.054 225.143 458.034 225.761 458.869 226.588C459.713 227.415 460.369 228.455 460.838 229.707C461.307 230.952 461.541 232.409 461.541 234.08V235.575H444.96V232.2H456.415C456.415 231.416 456.244 230.722 455.903 230.116C455.563 229.511 455.089 229.038 454.484 228.697C453.888 228.348 453.193 228.173 452.401 228.173C451.574 228.173 450.841 228.365 450.202 228.749C449.571 229.124 449.077 229.631 448.719 230.27C448.361 230.901 448.178 231.604 448.169 232.379V235.588C448.169 236.56 448.348 237.399 448.706 238.107C449.072 238.814 449.588 239.359 450.253 239.743C450.918 240.126 451.706 240.318 452.618 240.318C453.223 240.318 453.777 240.233 454.28 240.062C454.783 239.892 455.213 239.636 455.571 239.295C455.929 238.955 456.202 238.537 456.389 238.043L461.426 238.375C461.17 239.585 460.646 240.642 459.854 241.545C459.07 242.44 458.055 243.139 456.811 243.642C455.575 244.136 454.148 244.384 452.528 244.384Z" fill="#08FDD8"/>
</g>
<defs>
<clipPath id="clip0_10_7">
<rect width="501" height="468" rx="234" fill="white"/>
</clipPath>
</defs>
</svg>
