<svg width="501" height="468" viewBox="0 0 501 468" fill="none" xmlns="http://www.w3.org/2000/svg">
<g clip-path="url(#clip0_10_10)">
<rect width="501" height="468" rx="234" fill="white"/>
<ellipse cx="250.5" cy="234" rx="250.5" ry="234" fill="black"/>
<path d="M50.2756 244V217.818H67.9176V222.382H55.8111V228.621H67.0099V233.185H55.8111V239.436H67.9688V244H50.2756ZM57.179 215.287L59.8892 209.47H64.9261L61.027 215.287H57.179ZM77.6623 217.818V244H72.2163V217.818H77.6623ZM90.9737 244.384C88.9538 244.384 87.2152 243.974 85.7578 243.156C84.3089 242.33 83.1925 241.162 82.4084 239.653C81.6243 238.136 81.2322 236.342 81.2322 234.271C81.2322 232.251 81.6243 230.479 82.4084 228.953C83.1925 227.428 84.2962 226.239 85.7195 225.386C87.1513 224.534 88.8303 224.108 90.7564 224.108C92.0518 224.108 93.2578 224.317 94.3743 224.734C95.4993 225.143 96.4794 225.761 97.3146 226.588C98.1584 227.415 98.8146 228.455 99.2834 229.707C99.7521 230.952 99.9865 232.409 99.9865 234.08V235.575H83.4055V232.2H94.8601C94.8601 231.416 94.6896 230.722 94.3487 230.116C94.0078 229.511 93.5348 229.038 92.9297 228.697C92.3331 228.348 91.6385 228.173 90.8459 228.173C90.0192 228.173 89.2862 228.365 88.647 228.749C88.0163 229.124 87.522 229.631 87.1641 230.27C86.8061 230.901 86.6229 231.604 86.6143 232.379V235.588C86.6143 236.56 86.7933 237.399 87.1513 238.107C87.5178 238.814 88.0334 239.359 88.6982 239.743C89.3629 240.126 90.1513 240.318 91.0632 240.318C91.6683 240.318 92.2223 240.233 92.7251 240.062C93.228 239.892 93.6584 239.636 94.0163 239.295C94.3743 238.955 94.647 238.537 94.8345 238.043L99.8715 238.375C99.6158 239.585 99.0916 240.642 98.299 241.545C97.5149 242.44 96.5007 243.139 95.2564 243.642C94.0206 244.136 92.593 244.384 90.9737 244.384ZM112.413 244.384C110.401 244.384 108.671 243.957 107.222 243.105C105.782 242.244 104.674 241.051 103.898 239.526C103.131 238 102.748 236.244 102.748 234.259C102.748 232.247 103.136 230.483 103.911 228.966C104.695 227.44 105.808 226.251 107.248 225.399C108.688 224.538 110.401 224.108 112.387 224.108C114.1 224.108 115.6 224.419 116.887 225.041C118.174 225.663 119.192 226.537 119.942 227.662C120.692 228.787 121.106 230.108 121.183 231.625H116.043C115.898 230.645 115.515 229.857 114.893 229.26C114.279 228.655 113.474 228.352 112.477 228.352C111.633 228.352 110.896 228.582 110.265 229.043C109.643 229.494 109.157 230.155 108.808 231.024C108.458 231.893 108.283 232.946 108.283 234.182C108.283 235.435 108.454 236.5 108.795 237.378C109.144 238.256 109.634 238.925 110.265 239.385C110.896 239.845 111.633 240.075 112.477 240.075C113.099 240.075 113.657 239.947 114.151 239.692C114.654 239.436 115.067 239.065 115.391 238.58C115.724 238.085 115.941 237.493 116.043 236.803H121.183C121.097 238.303 120.688 239.624 119.955 240.766C119.231 241.899 118.229 242.786 116.951 243.425C115.673 244.064 114.16 244.384 112.413 244.384ZM135.114 224.364V228.455H123.289V224.364H135.114ZM125.973 219.659H131.419V237.966C131.419 238.469 131.496 238.861 131.65 239.142C131.803 239.415 132.016 239.607 132.289 239.717C132.57 239.828 132.894 239.884 133.26 239.884C133.516 239.884 133.772 239.862 134.027 239.82C134.283 239.768 134.479 239.73 134.615 239.705L135.472 243.757C135.199 243.842 134.816 243.94 134.321 244.051C133.827 244.17 133.226 244.243 132.519 244.268C131.206 244.32 130.056 244.145 129.067 243.744C128.087 243.344 127.324 242.722 126.779 241.878C126.233 241.034 125.965 239.969 125.973 238.682V219.659ZM138.662 244V224.364H143.941V227.79H144.146C144.504 226.571 145.105 225.651 145.949 225.028C146.792 224.398 147.764 224.082 148.863 224.082C149.136 224.082 149.43 224.099 149.745 224.134C150.061 224.168 150.338 224.214 150.576 224.274V229.107C150.321 229.03 149.967 228.962 149.515 228.902C149.064 228.842 148.65 228.812 148.275 228.812C147.474 228.812 146.758 228.987 146.127 229.337C145.505 229.678 145.011 230.155 144.645 230.768C144.287 231.382 144.108 232.089 144.108 232.891V244H138.662ZM153.392 244V224.364H158.838V244H153.392ZM156.128 221.832C155.318 221.832 154.624 221.564 154.044 221.027C153.473 220.482 153.188 219.83 153.188 219.071C153.188 218.321 153.473 217.678 154.044 217.141C154.624 216.595 155.318 216.322 156.128 216.322C156.938 216.322 157.628 216.595 158.199 217.141C158.778 217.678 159.068 218.321 159.068 219.071C159.068 219.83 158.778 220.482 158.199 221.027C157.628 221.564 156.938 221.832 156.128 221.832ZM172.073 244.384C170.061 244.384 168.331 243.957 166.882 243.105C165.442 242.244 164.334 241.051 163.559 239.526C162.792 238 162.408 236.244 162.408 234.259C162.408 232.247 162.796 230.483 163.571 228.966C164.355 227.44 165.468 226.251 166.908 225.399C168.348 224.538 170.061 224.108 172.047 224.108C173.76 224.108 175.26 224.419 176.547 225.041C177.834 225.663 178.853 226.537 179.603 227.662C180.353 228.787 180.766 230.108 180.843 231.625H175.703C175.559 230.645 175.175 229.857 174.553 229.26C173.939 228.655 173.134 228.352 172.137 228.352C171.293 228.352 170.556 228.582 169.925 229.043C169.303 229.494 168.817 230.155 168.468 231.024C168.118 231.893 167.944 232.946 167.944 234.182C167.944 235.435 168.114 236.5 168.455 237.378C168.804 238.256 169.294 238.925 169.925 239.385C170.556 239.845 171.293 240.075 172.137 240.075C172.759 240.075 173.317 239.947 173.811 239.692C174.314 239.436 174.728 239.065 175.051 238.58C175.384 238.085 175.601 237.493 175.703 236.803H180.843C180.757 238.303 180.348 239.624 179.615 240.766C178.891 241.899 177.89 242.786 176.611 243.425C175.333 244.064 173.82 244.384 172.073 244.384ZM184.33 244V224.364H189.776V244H184.33ZM187.065 221.832C186.256 221.832 185.561 221.564 184.982 221.027C184.411 220.482 184.125 219.83 184.125 219.071C184.125 218.321 184.411 217.678 184.982 217.141C185.561 216.595 186.256 216.322 187.065 216.322C187.875 216.322 188.565 216.595 189.136 217.141C189.716 217.678 190.006 218.321 190.006 219.071C190.006 219.83 189.716 220.482 189.136 221.027C188.565 221.564 187.875 221.832 187.065 221.832ZM204.583 224.364V228.455H192.757V224.364H204.583ZM195.442 219.659H200.888V237.966C200.888 238.469 200.965 238.861 201.118 239.142C201.272 239.415 201.485 239.607 201.757 239.717C202.039 239.828 202.363 239.884 202.729 239.884C202.985 239.884 203.24 239.862 203.496 239.82C203.752 239.768 203.948 239.73 204.084 239.705L204.941 243.757C204.668 243.842 204.284 243.94 203.79 244.051C203.296 244.17 202.695 244.243 201.988 244.268C200.675 244.32 199.525 244.145 198.536 243.744C197.556 243.344 196.793 242.722 196.248 241.878C195.702 241.034 195.434 239.969 195.442 238.682V219.659ZM216.868 244.384C214.848 244.384 213.11 243.974 211.652 243.156C210.203 242.33 209.087 241.162 208.303 239.653C207.519 238.136 207.127 236.342 207.127 234.271C207.127 232.251 207.519 230.479 208.303 228.953C209.087 227.428 210.191 226.239 211.614 225.386C213.046 224.534 214.725 224.108 216.651 224.108C217.946 224.108 219.152 224.317 220.269 224.734C221.394 225.143 222.374 225.761 223.209 226.588C224.053 227.415 224.709 228.455 225.178 229.707C225.647 230.952 225.881 232.409 225.881 234.08V235.575H209.3V232.2H220.755C220.755 231.416 220.584 230.722 220.243 230.116C219.902 229.511 219.429 229.038 218.824 228.697C218.228 228.348 217.533 228.173 216.74 228.173C215.914 228.173 215.181 228.365 214.542 228.749C213.911 229.124 213.417 229.631 213.059 230.27C212.701 230.901 212.517 231.604 212.509 232.379V235.588C212.509 236.56 212.688 237.399 213.046 238.107C213.412 238.814 213.928 239.359 214.593 239.743C215.257 240.126 216.046 240.318 216.958 240.318C217.563 240.318 218.117 240.233 218.62 240.062C219.123 239.892 219.553 239.636 219.911 239.295C220.269 238.955 220.542 238.537 220.729 238.043L225.766 238.375C225.51 239.585 224.986 240.642 224.194 241.545C223.409 242.44 222.395 243.139 221.151 243.642C219.915 244.136 218.488 244.384 216.868 244.384ZM214.567 221.832L217.277 216.016H222.314L218.415 221.832H214.567ZM243.405 217.818V244H237.869V217.818H243.405ZM253.303 232.648V244H247.857V224.364H253.047V227.828H253.277C253.712 226.686 254.441 225.783 255.463 225.118C256.486 224.445 257.726 224.108 259.184 224.108C260.547 224.108 261.736 224.406 262.75 225.003C263.765 225.599 264.553 226.452 265.115 227.56C265.678 228.659 265.959 229.972 265.959 231.497V244H260.513V232.469C260.522 231.267 260.215 230.33 259.593 229.656C258.971 228.974 258.114 228.634 257.023 228.634C256.29 228.634 255.642 228.791 255.08 229.107C254.526 229.422 254.091 229.882 253.776 230.487C253.469 231.084 253.311 231.804 253.303 232.648ZM277.487 244.32C275.996 244.32 274.645 243.936 273.435 243.169C272.233 242.393 271.278 241.256 270.571 239.756C269.872 238.247 269.523 236.398 269.523 234.207C269.523 231.957 269.885 230.087 270.609 228.595C271.334 227.095 272.297 225.974 273.499 225.233C274.709 224.483 276.034 224.108 277.474 224.108C278.574 224.108 279.49 224.295 280.223 224.67C280.964 225.037 281.561 225.497 282.013 226.051C282.473 226.597 282.822 227.134 283.061 227.662H283.227V217.818H288.661V244H283.291V240.855H283.061C282.805 241.401 282.443 241.942 281.974 242.479C281.514 243.007 280.913 243.446 280.172 243.795C279.439 244.145 278.544 244.32 277.487 244.32ZM279.213 239.986C280.091 239.986 280.832 239.747 281.438 239.27C282.051 238.784 282.52 238.107 282.844 237.237C283.176 236.368 283.342 235.349 283.342 234.182C283.342 233.014 283.18 232 282.857 231.139C282.533 230.278 282.064 229.614 281.45 229.145C280.837 228.676 280.091 228.442 279.213 228.442C278.318 228.442 277.564 228.685 276.95 229.17C276.337 229.656 275.872 230.33 275.557 231.19C275.241 232.051 275.084 233.048 275.084 234.182C275.084 235.324 275.241 236.334 275.557 237.212C275.881 238.081 276.345 238.763 276.95 239.257C277.564 239.743 278.318 239.986 279.213 239.986ZM305.73 235.639V224.364H311.176V244H305.948V240.433H305.743C305.3 241.584 304.563 242.509 303.532 243.207C302.509 243.906 301.26 244.256 299.786 244.256C298.473 244.256 297.319 243.957 296.321 243.361C295.324 242.764 294.544 241.916 293.982 240.817C293.428 239.717 293.147 238.401 293.138 236.866V224.364H298.584V235.895C298.593 237.054 298.904 237.97 299.517 238.643C300.131 239.317 300.953 239.653 301.985 239.653C302.641 239.653 303.255 239.504 303.826 239.206C304.397 238.899 304.857 238.447 305.206 237.851C305.564 237.254 305.739 236.517 305.73 235.639ZM331.871 229.963L326.885 230.27C326.8 229.844 326.616 229.46 326.335 229.119C326.054 228.77 325.683 228.493 325.223 228.288C324.771 228.075 324.23 227.969 323.599 227.969C322.756 227.969 322.044 228.148 321.464 228.506C320.885 228.855 320.595 229.324 320.595 229.912C320.595 230.381 320.783 230.777 321.158 231.101C321.533 231.425 322.176 231.685 323.088 231.881L326.642 232.597C328.551 232.989 329.974 233.619 330.912 234.489C331.849 235.358 332.318 236.5 332.318 237.915C332.318 239.202 331.939 240.331 331.18 241.303C330.43 242.274 329.399 243.033 328.087 243.578C326.783 244.115 325.278 244.384 323.574 244.384C320.974 244.384 318.903 243.842 317.361 242.76C315.827 241.669 314.928 240.186 314.663 238.311L320.02 238.03C320.182 238.822 320.574 239.428 321.196 239.845C321.818 240.254 322.615 240.459 323.587 240.459C324.541 240.459 325.308 240.276 325.888 239.909C326.476 239.534 326.774 239.053 326.783 238.464C326.774 237.97 326.565 237.565 326.156 237.25C325.747 236.926 325.116 236.679 324.264 236.509L320.864 235.831C318.946 235.447 317.518 234.783 316.581 233.837C315.652 232.891 315.188 231.685 315.188 230.219C315.188 228.957 315.528 227.871 316.21 226.959C316.901 226.047 317.868 225.344 319.112 224.849C320.365 224.355 321.831 224.108 323.51 224.108C325.99 224.108 327.942 224.632 329.365 225.68C330.797 226.729 331.632 228.156 331.871 229.963ZM346.192 224.364V228.455H334.367V224.364H346.192ZM337.051 219.659H342.498V237.966C342.498 238.469 342.574 238.861 342.728 239.142C342.881 239.415 343.094 239.607 343.367 239.717C343.648 239.828 343.972 239.884 344.338 239.884C344.594 239.884 344.85 239.862 345.105 239.82C345.361 239.768 345.557 239.73 345.694 239.705L346.55 243.757C346.277 243.842 345.894 243.94 345.4 244.051C344.905 244.17 344.304 244.243 343.597 244.268C342.284 244.32 341.134 244.145 340.145 243.744C339.165 243.344 338.402 242.722 337.857 241.878C337.311 241.034 337.043 239.969 337.051 238.682V219.659ZM349.74 244V224.364H355.02V227.79H355.224C355.582 226.571 356.183 225.651 357.027 225.028C357.87 224.398 358.842 224.082 359.941 224.082C360.214 224.082 360.508 224.099 360.824 224.134C361.139 224.168 361.416 224.214 361.654 224.274V229.107C361.399 229.03 361.045 228.962 360.593 228.902C360.142 228.842 359.728 228.812 359.353 228.812C358.552 228.812 357.836 228.987 357.206 229.337C356.583 229.678 356.089 230.155 355.723 230.768C355.365 231.382 355.186 232.089 355.186 232.891V244H349.74ZM364.47 244V224.364H369.916V244H364.47ZM367.206 221.832C366.396 221.832 365.702 221.564 365.122 221.027C364.551 220.482 364.266 219.83 364.266 219.071C364.266 218.321 364.551 217.678 365.122 217.141C365.702 216.595 366.396 216.322 367.206 216.322C368.016 216.322 368.706 216.595 369.277 217.141C369.857 217.678 370.146 218.321 370.146 219.071C370.146 219.83 369.857 220.482 369.277 221.027C368.706 221.564 368.016 221.832 367.206 221.832ZM383.228 244.384C381.208 244.384 379.469 243.974 378.012 243.156C376.563 242.33 375.446 241.162 374.662 239.653C373.878 238.136 373.486 236.342 373.486 234.271C373.486 232.251 373.878 230.479 374.662 228.953C375.446 227.428 376.55 226.239 377.973 225.386C379.405 224.534 381.084 224.108 383.01 224.108C384.306 224.108 385.512 224.317 386.628 224.734C387.753 225.143 388.733 225.761 389.569 226.588C390.412 227.415 391.069 228.455 391.537 229.707C392.006 230.952 392.24 232.409 392.24 234.08V235.575H375.659V232.2H387.114C387.114 231.416 386.944 230.722 386.603 230.116C386.262 229.511 385.789 229.038 385.184 228.697C384.587 228.348 383.892 228.173 383.1 228.173C382.273 228.173 381.54 228.365 380.901 228.749C380.27 229.124 379.776 229.631 379.418 230.27C379.06 230.901 378.877 231.604 378.868 232.379V235.588C378.868 236.56 379.047 237.399 379.405 238.107C379.772 238.814 380.287 239.359 380.952 239.743C381.617 240.126 382.405 240.318 383.317 240.318C383.922 240.318 384.476 240.233 384.979 240.062C385.482 239.892 385.912 239.636 386.27 239.295C386.628 238.955 386.901 238.537 387.088 238.043L392.125 238.375C391.87 239.585 391.346 240.642 390.553 241.545C389.769 242.44 388.755 243.139 387.51 243.642C386.275 244.136 384.847 244.384 383.228 244.384ZM401.24 217.818V244H395.794V217.818H401.24ZM411.049 217.818V244H405.603V217.818H411.049ZM424.36 244.384C422.341 244.384 420.602 243.974 419.145 243.156C417.696 242.33 416.579 241.162 415.795 239.653C415.011 238.136 414.619 236.342 414.619 234.271C414.619 232.251 415.011 230.479 415.795 228.953C416.579 227.428 417.683 226.239 419.106 225.386C420.538 224.534 422.217 224.108 424.143 224.108C425.439 224.108 426.645 224.317 427.761 224.734C428.886 225.143 429.866 225.761 430.701 226.588C431.545 227.415 432.201 228.455 432.67 229.707C433.139 230.952 433.373 232.409 433.373 234.08V235.575H416.792V232.2H428.247C428.247 231.416 428.076 230.722 427.735 230.116C427.395 229.511 426.922 229.038 426.316 228.697C425.72 228.348 425.025 228.173 424.233 228.173C423.406 228.173 422.673 228.365 422.034 228.749C421.403 229.124 420.909 229.631 420.551 230.27C420.193 230.901 420.01 231.604 420.001 232.379V235.588C420.001 236.56 420.18 237.399 420.538 238.107C420.904 238.814 421.42 239.359 422.085 239.743C422.75 240.126 423.538 240.318 424.45 240.318C425.055 240.318 425.609 240.233 426.112 240.062C426.615 239.892 427.045 239.636 427.403 239.295C427.761 238.955 428.034 238.537 428.221 238.043L433.258 238.375C433.002 239.585 432.478 240.642 431.686 241.545C430.902 242.44 429.887 243.139 428.643 243.642C427.407 244.136 425.98 244.384 424.36 244.384Z" fill="#08FDD8"/>
</g>
<defs>
<clipPath id="clip0_10_10">
<rect width="501" height="468" rx="234" fill="white"/>
</clipPath>
</defs>
</svg>
