<svg width="501" height="468" viewBox="0 0 501 468" fill="none" xmlns="http://www.w3.org/2000/svg">
<g clip-path="url(#clip0_10_4)">
<rect width="501" height="468" rx="234" fill="white"/>
<ellipse cx="250.5" cy="234" rx="250.5" ry="234" fill="black"/>
<path d="M133.77 151.818V178H128.235V151.818H133.77ZM143.668 166.648V178H138.222V158.364H143.412V161.828H143.643C144.077 160.686 144.806 159.783 145.829 159.118C146.851 158.445 148.091 158.108 149.549 158.108C150.912 158.108 152.101 158.406 153.116 159.003C154.13 159.599 154.918 160.452 155.481 161.56C156.043 162.659 156.324 163.972 156.324 165.497V178H150.878V166.469C150.887 165.267 150.58 164.33 149.958 163.656C149.336 162.974 148.479 162.634 147.388 162.634C146.655 162.634 146.008 162.791 145.445 163.107C144.891 163.422 144.456 163.882 144.141 164.487C143.834 165.084 143.677 165.804 143.668 166.648ZM176.955 163.963L171.969 164.27C171.884 163.844 171.7 163.46 171.419 163.119C171.138 162.77 170.767 162.493 170.307 162.288C169.855 162.075 169.314 161.969 168.683 161.969C167.84 161.969 167.128 162.148 166.548 162.506C165.969 162.855 165.679 163.324 165.679 163.912C165.679 164.381 165.867 164.777 166.242 165.101C166.617 165.425 167.26 165.685 168.172 165.881L171.726 166.597C173.635 166.989 175.058 167.619 175.996 168.489C176.933 169.358 177.402 170.5 177.402 171.915C177.402 173.202 177.023 174.331 176.264 175.303C175.514 176.274 174.483 177.033 173.171 177.578C171.867 178.115 170.362 178.384 168.658 178.384C166.058 178.384 163.987 177.842 162.445 176.76C160.911 175.669 160.012 174.186 159.747 172.311L165.104 172.03C165.266 172.822 165.658 173.428 166.28 173.845C166.902 174.254 167.699 174.459 168.671 174.459C169.625 174.459 170.392 174.276 170.972 173.909C171.56 173.534 171.858 173.053 171.867 172.464C171.858 171.97 171.649 171.565 171.24 171.25C170.831 170.926 170.2 170.679 169.348 170.509L165.948 169.831C164.03 169.447 162.602 168.783 161.665 167.837C160.736 166.891 160.271 165.685 160.271 164.219C160.271 162.957 160.612 161.871 161.294 160.959C161.985 160.047 162.952 159.344 164.196 158.849C165.449 158.355 166.915 158.108 168.594 158.108C171.074 158.108 173.026 158.632 174.449 159.68C175.881 160.729 176.716 162.156 176.955 163.963ZM191.276 158.364V162.455H179.451V158.364H191.276ZM182.135 153.659H187.581V171.966C187.581 172.469 187.658 172.861 187.812 173.142C187.965 173.415 188.178 173.607 188.451 173.717C188.732 173.828 189.056 173.884 189.422 173.884C189.678 173.884 189.934 173.862 190.189 173.82C190.445 173.768 190.641 173.73 190.778 173.705L191.634 177.757C191.361 177.842 190.978 177.94 190.483 178.051C189.989 178.17 189.388 178.243 188.681 178.268C187.368 178.32 186.218 178.145 185.229 177.744C184.249 177.344 183.486 176.722 182.941 175.878C182.395 175.034 182.127 173.969 182.135 172.682V153.659ZM200.423 178.371C199.17 178.371 198.054 178.153 197.074 177.719C196.094 177.276 195.318 176.624 194.747 175.763C194.184 174.893 193.903 173.811 193.903 172.516C193.903 171.425 194.104 170.509 194.504 169.767C194.905 169.026 195.45 168.429 196.14 167.977C196.831 167.526 197.615 167.185 198.493 166.955C199.379 166.724 200.308 166.562 201.28 166.469C202.422 166.349 203.342 166.239 204.041 166.136C204.74 166.026 205.247 165.864 205.562 165.651C205.878 165.437 206.035 165.122 206.035 164.705V164.628C206.035 163.818 205.78 163.192 205.268 162.749C204.765 162.305 204.05 162.084 203.121 162.084C202.14 162.084 201.361 162.301 200.781 162.736C200.202 163.162 199.818 163.699 199.631 164.347L194.594 163.938C194.849 162.744 195.352 161.713 196.102 160.844C196.852 159.966 197.819 159.293 199.004 158.824C200.197 158.347 201.578 158.108 203.146 158.108C204.237 158.108 205.281 158.236 206.278 158.491C207.284 158.747 208.175 159.143 208.95 159.68C209.734 160.217 210.352 160.908 210.804 161.751C211.256 162.587 211.481 163.588 211.481 164.756V178H206.317V175.277H206.163C205.848 175.891 205.426 176.432 204.898 176.901C204.369 177.361 203.734 177.723 202.993 177.987C202.251 178.243 201.395 178.371 200.423 178.371ZM201.983 174.612C202.784 174.612 203.491 174.455 204.105 174.139C204.719 173.815 205.2 173.381 205.55 172.835C205.899 172.29 206.074 171.672 206.074 170.982V168.898C205.903 169.009 205.669 169.111 205.371 169.205C205.081 169.29 204.753 169.371 204.386 169.447C204.02 169.516 203.653 169.58 203.287 169.639C202.92 169.69 202.588 169.737 202.29 169.78C201.65 169.874 201.092 170.023 200.615 170.227C200.138 170.432 199.767 170.709 199.503 171.058C199.238 171.399 199.106 171.825 199.106 172.337C199.106 173.078 199.375 173.645 199.912 174.037C200.457 174.42 201.148 174.612 201.983 174.612ZM221.153 151.818V178H215.706V151.818H221.153ZM230.961 151.818V178H225.515V151.818H230.961ZM240.923 178.371C239.67 178.371 238.554 178.153 237.574 177.719C236.594 177.276 235.818 176.624 235.247 175.763C234.684 174.893 234.403 173.811 234.403 172.516C234.403 171.425 234.604 170.509 235.004 169.767C235.405 169.026 235.95 168.429 236.64 167.977C237.331 167.526 238.115 167.185 238.993 166.955C239.879 166.724 240.808 166.562 241.78 166.469C242.922 166.349 243.842 166.239 244.541 166.136C245.24 166.026 245.747 165.864 246.062 165.651C246.378 165.437 246.535 165.122 246.535 164.705V164.628C246.535 163.818 246.28 163.192 245.768 162.749C245.265 162.305 244.55 162.084 243.621 162.084C242.64 162.084 241.861 162.301 241.281 162.736C240.702 163.162 240.318 163.699 240.131 164.347L235.094 163.938C235.349 162.744 235.852 161.713 236.602 160.844C237.352 159.966 238.319 159.293 239.504 158.824C240.697 158.347 242.078 158.108 243.646 158.108C244.737 158.108 245.781 158.236 246.778 158.491C247.784 158.747 248.675 159.143 249.45 159.68C250.234 160.217 250.852 160.908 251.304 161.751C251.756 162.587 251.981 163.588 251.981 164.756V178H246.817V175.277H246.663C246.348 175.891 245.926 176.432 245.398 176.901C244.869 177.361 244.234 177.723 243.493 177.987C242.751 178.243 241.895 178.371 240.923 178.371ZM242.483 174.612C243.284 174.612 243.991 174.455 244.605 174.139C245.219 173.815 245.7 173.381 246.05 172.835C246.399 172.29 246.574 171.672 246.574 170.982V168.898C246.403 169.009 246.169 169.111 245.871 169.205C245.581 169.29 245.253 169.371 244.886 169.447C244.52 169.516 244.153 169.58 243.787 169.639C243.42 169.69 243.088 169.737 242.79 169.78C242.15 169.874 241.592 170.023 241.115 170.227C240.638 170.432 240.267 170.709 240.003 171.058C239.738 171.399 239.606 171.825 239.606 172.337C239.606 173.078 239.875 173.645 240.412 174.037C240.957 174.42 241.648 174.612 242.483 174.612ZM266.651 158.364V162.455H254.826V158.364H266.651ZM257.51 153.659H262.956V171.966C262.956 172.469 263.033 172.861 263.187 173.142C263.34 173.415 263.553 173.607 263.826 173.717C264.107 173.828 264.431 173.884 264.797 173.884C265.053 173.884 265.309 173.862 265.564 173.82C265.82 173.768 266.016 173.73 266.153 173.705L267.009 177.757C266.736 177.842 266.353 177.94 265.858 178.051C265.364 178.17 264.763 178.243 264.056 178.268C262.743 178.32 261.593 178.145 260.604 177.744C259.624 177.344 258.861 176.722 258.316 175.878C257.77 175.034 257.502 173.969 257.51 172.682V153.659ZM270.199 178V158.364H275.645V178H270.199ZM272.934 155.832C272.125 155.832 271.43 155.564 270.851 155.027C270.28 154.482 269.994 153.83 269.994 153.071C269.994 152.321 270.28 151.678 270.851 151.141C271.43 150.595 272.125 150.322 272.934 150.322C273.744 150.322 274.434 150.595 275.006 151.141C275.585 151.678 275.875 152.321 275.875 153.071C275.875 153.83 275.585 154.482 275.006 155.027C274.434 155.564 273.744 155.832 272.934 155.832ZM288.879 178.384C286.894 178.384 285.176 177.962 283.727 177.118C282.287 176.266 281.175 175.081 280.391 173.564C279.607 172.038 279.215 170.27 279.215 168.259C279.215 166.23 279.607 164.457 280.391 162.94C281.175 161.415 282.287 160.23 283.727 159.386C285.176 158.534 286.894 158.108 288.879 158.108C290.865 158.108 292.578 158.534 294.019 159.386C295.468 160.23 296.584 161.415 297.368 162.94C298.152 164.457 298.544 166.23 298.544 168.259C298.544 170.27 298.152 172.038 297.368 173.564C296.584 175.081 295.468 176.266 294.019 177.118C292.578 177.962 290.865 178.384 288.879 178.384ZM288.905 174.165C289.808 174.165 290.563 173.909 291.168 173.398C291.773 172.878 292.229 172.17 292.536 171.276C292.851 170.381 293.009 169.362 293.009 168.22C293.009 167.078 292.851 166.06 292.536 165.165C292.229 164.27 291.773 163.562 291.168 163.043C290.563 162.523 289.808 162.263 288.905 162.263C287.993 162.263 287.226 162.523 286.604 163.043C285.99 163.562 285.526 164.27 285.21 165.165C284.904 166.06 284.75 167.078 284.75 168.22C284.75 169.362 284.904 170.381 285.21 171.276C285.526 172.17 285.99 172.878 286.604 173.398C287.226 173.909 287.993 174.165 288.905 174.165ZM307.531 166.648V178H302.085V158.364H307.276V161.828H307.506C307.941 160.686 308.669 159.783 309.692 159.118C310.715 158.445 311.955 158.108 313.412 158.108C314.776 158.108 315.965 158.406 316.979 159.003C317.993 159.599 318.781 160.452 319.344 161.56C319.906 162.659 320.188 163.972 320.188 165.497V178H314.742V166.469C314.75 165.267 314.443 164.33 313.821 163.656C313.199 162.974 312.343 162.634 311.252 162.634C310.519 162.634 309.871 162.791 309.308 163.107C308.754 163.422 308.32 163.882 308.004 164.487C307.698 165.084 307.54 165.804 307.531 166.648ZM340.048 178.32C338.556 178.32 337.205 177.936 335.995 177.169C334.794 176.393 333.839 175.256 333.132 173.756C332.433 172.247 332.083 170.398 332.083 168.207C332.083 165.957 332.445 164.087 333.17 162.595C333.894 161.095 334.857 159.974 336.059 159.233C337.269 158.483 338.595 158.108 340.035 158.108C341.134 158.108 342.051 158.295 342.784 158.67C343.525 159.037 344.122 159.497 344.573 160.051C345.034 160.597 345.383 161.134 345.622 161.662H345.788V151.818H351.221V178H345.852V174.855H345.622C345.366 175.401 345.004 175.942 344.535 176.479C344.075 177.007 343.474 177.446 342.732 177.795C341.999 178.145 341.105 178.32 340.048 178.32ZM341.774 173.986C342.651 173.986 343.393 173.747 343.998 173.27C344.612 172.784 345.08 172.107 345.404 171.237C345.737 170.368 345.903 169.349 345.903 168.182C345.903 167.014 345.741 166 345.417 165.139C345.093 164.278 344.624 163.614 344.011 163.145C343.397 162.676 342.651 162.442 341.774 162.442C340.879 162.442 340.124 162.685 339.511 163.17C338.897 163.656 338.433 164.33 338.117 165.19C337.802 166.051 337.644 167.048 337.644 168.182C337.644 169.324 337.802 170.334 338.117 171.212C338.441 172.081 338.906 172.763 339.511 173.257C340.124 173.743 340.879 173.986 341.774 173.986ZM364.648 178.384C362.628 178.384 360.889 177.974 359.432 177.156C357.983 176.33 356.866 175.162 356.082 173.653C355.298 172.136 354.906 170.342 354.906 168.271C354.906 166.251 355.298 164.479 356.082 162.953C356.866 161.428 357.97 160.239 359.393 159.386C360.825 158.534 362.504 158.108 364.43 158.108C365.726 158.108 366.932 158.317 368.048 158.734C369.173 159.143 370.153 159.761 370.988 160.588C371.832 161.415 372.488 162.455 372.957 163.707C373.426 164.952 373.66 166.409 373.66 168.08V169.575H357.079V166.2H368.534C368.534 165.416 368.363 164.722 368.023 164.116C367.682 163.511 367.209 163.038 366.604 162.697C366.007 162.348 365.312 162.173 364.52 162.173C363.693 162.173 362.96 162.365 362.321 162.749C361.69 163.124 361.196 163.631 360.838 164.27C360.48 164.901 360.297 165.604 360.288 166.379V169.588C360.288 170.56 360.467 171.399 360.825 172.107C361.192 172.814 361.707 173.359 362.372 173.743C363.037 174.126 363.825 174.318 364.737 174.318C365.342 174.318 365.896 174.233 366.399 174.062C366.902 173.892 367.332 173.636 367.69 173.295C368.048 172.955 368.321 172.537 368.508 172.043L373.545 172.375C373.29 173.585 372.765 174.642 371.973 175.545C371.189 176.44 370.175 177.139 368.93 177.642C367.694 178.136 366.267 178.384 364.648 178.384ZM170.724 204.984H165.125C165.022 204.26 164.814 203.616 164.498 203.054C164.183 202.483 163.778 201.997 163.284 201.597C162.789 201.196 162.218 200.889 161.571 200.676C160.931 200.463 160.237 200.357 159.487 200.357C158.132 200.357 156.951 200.693 155.946 201.366C154.94 202.031 154.16 203.003 153.606 204.281C153.052 205.551 152.775 207.094 152.775 208.909C152.775 210.776 153.052 212.344 153.606 213.614C154.169 214.884 154.953 215.842 155.958 216.49C156.964 217.138 158.127 217.462 159.449 217.462C160.19 217.462 160.876 217.364 161.507 217.168C162.146 216.972 162.713 216.686 163.207 216.311C163.701 215.928 164.11 215.463 164.434 214.918C164.767 214.372 164.997 213.75 165.125 213.051L170.724 213.077C170.579 214.278 170.217 215.438 169.637 216.554C169.066 217.662 168.295 218.655 167.324 219.533C166.36 220.402 165.21 221.092 163.872 221.604C162.542 222.107 161.038 222.358 159.359 222.358C157.024 222.358 154.936 221.83 153.095 220.773C151.262 219.716 149.814 218.186 148.748 216.183C147.691 214.18 147.163 211.756 147.163 208.909C147.163 206.054 147.7 203.625 148.774 201.622C149.848 199.619 151.305 198.094 153.146 197.045C154.987 195.989 157.058 195.46 159.359 195.46C160.876 195.46 162.282 195.673 163.578 196.099C164.882 196.526 166.037 197.148 167.042 197.966C168.048 198.776 168.866 199.768 169.497 200.945C170.136 202.121 170.545 203.467 170.724 204.984ZM180.191 222.371C178.938 222.371 177.821 222.153 176.841 221.719C175.861 221.276 175.086 220.624 174.515 219.763C173.952 218.893 173.671 217.811 173.671 216.516C173.671 215.425 173.871 214.509 174.272 213.767C174.672 213.026 175.218 212.429 175.908 211.977C176.598 211.526 177.382 211.185 178.26 210.955C179.147 210.724 180.076 210.562 181.047 210.469C182.189 210.349 183.11 210.239 183.809 210.136C184.507 210.026 185.015 209.864 185.33 209.651C185.645 209.437 185.803 209.122 185.803 208.705V208.628C185.803 207.818 185.547 207.192 185.036 206.749C184.533 206.305 183.817 206.084 182.888 206.084C181.908 206.084 181.128 206.301 180.549 206.736C179.969 207.162 179.586 207.699 179.398 208.347L174.361 207.938C174.617 206.744 175.12 205.713 175.87 204.844C176.62 203.966 177.587 203.293 178.772 202.824C179.965 202.347 181.346 202.108 182.914 202.108C184.005 202.108 185.049 202.236 186.046 202.491C187.051 202.747 187.942 203.143 188.718 203.68C189.502 204.217 190.12 204.908 190.571 205.751C191.023 206.587 191.249 207.588 191.249 208.756V222H186.084V219.277H185.931C185.615 219.891 185.194 220.432 184.665 220.901C184.137 221.361 183.502 221.723 182.76 221.987C182.019 222.243 181.162 222.371 180.191 222.371ZM181.75 218.612C182.551 218.612 183.259 218.455 183.873 218.139C184.486 217.815 184.968 217.381 185.317 216.835C185.667 216.29 185.841 215.672 185.841 214.982V212.898C185.671 213.009 185.436 213.111 185.138 213.205C184.848 213.29 184.52 213.371 184.154 213.447C183.787 213.516 183.421 213.58 183.054 213.639C182.688 213.69 182.355 213.737 182.057 213.78C181.418 213.874 180.86 214.023 180.382 214.227C179.905 214.432 179.534 214.709 179.27 215.058C179.006 215.399 178.874 215.825 178.874 216.337C178.874 217.078 179.142 217.645 179.679 218.037C180.225 218.42 180.915 218.612 181.75 218.612ZM195.474 222V202.364H200.664V205.828H200.895C201.304 204.678 201.985 203.77 202.94 203.105C203.895 202.44 205.037 202.108 206.366 202.108C207.713 202.108 208.859 202.445 209.805 203.118C210.751 203.783 211.382 204.686 211.697 205.828H211.902C212.302 204.703 213.027 203.804 214.075 203.131C215.132 202.449 216.38 202.108 217.821 202.108C219.653 202.108 221.14 202.692 222.282 203.859C223.433 205.018 224.008 206.663 224.008 208.794V222H218.575V209.868C218.575 208.777 218.285 207.959 217.706 207.413C217.126 206.868 216.402 206.595 215.532 206.595C214.544 206.595 213.772 206.911 213.218 207.541C212.664 208.163 212.387 208.986 212.387 210.009V222H207.108V209.753C207.108 208.79 206.831 208.023 206.277 207.452C205.731 206.881 205.011 206.595 204.116 206.595C203.511 206.595 202.966 206.749 202.48 207.055C202.002 207.354 201.623 207.776 201.342 208.321C201.061 208.858 200.92 209.489 200.92 210.213V222H195.474ZM237.259 222.384C235.239 222.384 233.5 221.974 232.043 221.156C230.594 220.33 229.478 219.162 228.694 217.653C227.909 216.136 227.517 214.342 227.517 212.271C227.517 210.251 227.909 208.479 228.694 206.953C229.478 205.428 230.581 204.239 232.005 203.386C233.436 202.534 235.115 202.108 237.042 202.108C238.337 202.108 239.543 202.317 240.659 202.734C241.784 203.143 242.765 203.761 243.6 204.588C244.444 205.415 245.1 206.455 245.569 207.707C246.037 208.952 246.272 210.409 246.272 212.08V213.575H229.691V210.2H241.145C241.145 209.416 240.975 208.722 240.634 208.116C240.293 207.511 239.82 207.038 239.215 206.697C238.618 206.348 237.924 206.173 237.131 206.173C236.304 206.173 235.571 206.365 234.932 206.749C234.301 207.124 233.807 207.631 233.449 208.27C233.091 208.901 232.908 209.604 232.9 210.379V213.588C232.9 214.56 233.078 215.399 233.436 216.107C233.803 216.814 234.319 217.359 234.983 217.743C235.648 218.126 236.436 218.318 237.348 218.318C237.953 218.318 238.507 218.233 239.01 218.062C239.513 217.892 239.944 217.636 240.301 217.295C240.659 216.955 240.932 216.537 241.12 216.043L246.157 216.375C245.901 217.585 245.377 218.642 244.584 219.545C243.8 220.44 242.786 221.139 241.542 221.642C240.306 222.136 238.878 222.384 237.259 222.384ZM234.958 199.832L237.668 194.016H242.705L238.806 199.832H234.958ZM249.826 222V202.364H255.105V205.79H255.31C255.668 204.571 256.269 203.651 257.113 203.028C257.956 202.398 258.928 202.082 260.027 202.082C260.3 202.082 260.594 202.099 260.909 202.134C261.225 202.168 261.502 202.214 261.74 202.274V207.107C261.485 207.03 261.131 206.962 260.679 206.902C260.228 206.842 259.814 206.812 259.439 206.812C258.638 206.812 257.922 206.987 257.292 207.337C256.669 207.678 256.175 208.155 255.809 208.768C255.451 209.382 255.272 210.089 255.272 210.891V222H249.826ZM269.593 222.371C268.34 222.371 267.224 222.153 266.244 221.719C265.263 221.276 264.488 220.624 263.917 219.763C263.354 218.893 263.073 217.811 263.073 216.516C263.073 215.425 263.273 214.509 263.674 213.767C264.075 213.026 264.62 212.429 265.31 211.977C266.001 211.526 266.785 211.185 267.663 210.955C268.549 210.724 269.478 210.562 270.45 210.469C271.592 210.349 272.512 210.239 273.211 210.136C273.91 210.026 274.417 209.864 274.732 209.651C275.048 209.437 275.205 209.122 275.205 208.705V208.628C275.205 207.818 274.95 207.192 274.438 206.749C273.935 206.305 273.219 206.084 272.29 206.084C271.31 206.084 270.531 206.301 269.951 206.736C269.371 207.162 268.988 207.699 268.8 208.347L263.763 207.938C264.019 206.744 264.522 205.713 265.272 204.844C266.022 203.966 266.989 203.293 268.174 202.824C269.367 202.347 270.748 202.108 272.316 202.108C273.407 202.108 274.451 202.236 275.448 202.491C276.454 202.747 277.344 203.143 278.12 203.68C278.904 204.217 279.522 204.908 279.974 205.751C280.425 206.587 280.651 207.588 280.651 208.756V222H275.487V219.277H275.333C275.018 219.891 274.596 220.432 274.067 220.901C273.539 221.361 272.904 221.723 272.163 221.987C271.421 222.243 270.565 222.371 269.593 222.371ZM271.153 218.612C271.954 218.612 272.661 218.455 273.275 218.139C273.888 217.815 274.37 217.381 274.719 216.835C275.069 216.29 275.244 215.672 275.244 214.982V212.898C275.073 213.009 274.839 213.111 274.54 213.205C274.251 213.29 273.923 213.371 273.556 213.447C273.19 213.516 272.823 213.58 272.457 213.639C272.09 213.69 271.758 213.737 271.46 213.78C270.82 213.874 270.262 214.023 269.785 214.227C269.308 214.432 268.937 214.709 268.673 215.058C268.408 215.399 268.276 215.825 268.276 216.337C268.276 217.078 268.545 217.645 269.082 218.037C269.627 218.42 270.317 218.612 271.153 218.612ZM301.214 207.963L296.229 208.27C296.143 207.844 295.96 207.46 295.679 207.119C295.398 206.77 295.027 206.493 294.567 206.288C294.115 206.075 293.574 205.969 292.943 205.969C292.099 205.969 291.388 206.148 290.808 206.506C290.229 206.855 289.939 207.324 289.939 207.912C289.939 208.381 290.126 208.777 290.501 209.101C290.876 209.425 291.52 209.685 292.432 209.881L295.986 210.597C297.895 210.989 299.318 211.619 300.256 212.489C301.193 213.358 301.662 214.5 301.662 215.915C301.662 217.202 301.283 218.331 300.524 219.303C299.774 220.274 298.743 221.033 297.43 221.578C296.126 222.115 294.622 222.384 292.918 222.384C290.318 222.384 288.247 221.842 286.705 220.76C285.17 219.669 284.271 218.186 284.007 216.311L289.364 216.03C289.526 216.822 289.918 217.428 290.54 217.845C291.162 218.254 291.959 218.459 292.93 218.459C293.885 218.459 294.652 218.276 295.232 217.909C295.82 217.534 296.118 217.053 296.126 216.464C296.118 215.97 295.909 215.565 295.5 215.25C295.091 214.926 294.46 214.679 293.608 214.509L290.207 213.831C288.29 213.447 286.862 212.783 285.925 211.837C284.996 210.891 284.531 209.685 284.531 208.219C284.531 206.957 284.872 205.871 285.554 204.959C286.244 204.047 287.212 203.344 288.456 202.849C289.709 202.355 291.175 202.108 292.854 202.108C295.334 202.108 297.286 202.632 298.709 203.68C300.141 204.729 300.976 206.156 301.214 207.963ZM320.659 222.32C319.168 222.32 317.817 221.936 316.607 221.169C315.405 220.393 314.45 219.256 313.743 217.756C313.044 216.247 312.695 214.398 312.695 212.207C312.695 209.957 313.057 208.087 313.781 206.595C314.506 205.095 315.469 203.974 316.67 203.233C317.881 202.483 319.206 202.108 320.646 202.108C321.746 202.108 322.662 202.295 323.395 202.67C324.136 203.037 324.733 203.497 325.185 204.051C325.645 204.597 325.994 205.134 326.233 205.662H326.399V195.818H331.832V222H326.463V218.855H326.233C325.977 219.401 325.615 219.942 325.146 220.479C324.686 221.007 324.085 221.446 323.344 221.795C322.611 222.145 321.716 222.32 320.659 222.32ZM322.385 217.986C323.263 217.986 324.004 217.747 324.609 217.27C325.223 216.784 325.692 216.107 326.016 215.237C326.348 214.368 326.514 213.349 326.514 212.182C326.514 211.014 326.352 210 326.028 209.139C325.705 208.278 325.236 207.614 324.622 207.145C324.009 206.676 323.263 206.442 322.385 206.442C321.49 206.442 320.736 206.685 320.122 207.17C319.509 207.656 319.044 208.33 318.729 209.19C318.413 210.051 318.256 211.048 318.256 212.182C318.256 213.324 318.413 214.334 318.729 215.212C319.053 216.081 319.517 216.763 320.122 217.257C320.736 217.743 321.49 217.986 322.385 217.986ZM345.259 222.384C343.239 222.384 341.5 221.974 340.043 221.156C338.594 220.33 337.478 219.162 336.694 217.653C335.909 216.136 335.517 214.342 335.517 212.271C335.517 210.251 335.909 208.479 336.694 206.953C337.478 205.428 338.581 204.239 340.005 203.386C341.436 202.534 343.115 202.108 345.042 202.108C346.337 202.108 347.543 202.317 348.659 202.734C349.784 203.143 350.765 203.761 351.6 204.588C352.444 205.415 353.1 206.455 353.569 207.707C354.037 208.952 354.272 210.409 354.272 212.08V213.575H337.691V210.2H349.145C349.145 209.416 348.975 208.722 348.634 208.116C348.293 207.511 347.82 207.038 347.215 206.697C346.618 206.348 345.924 206.173 345.131 206.173C344.304 206.173 343.571 206.365 342.932 206.749C342.301 207.124 341.807 207.631 341.449 208.27C341.091 208.901 340.908 209.604 340.9 210.379V213.588C340.9 214.56 341.078 215.399 341.436 216.107C341.803 216.814 342.319 217.359 342.983 217.743C343.648 218.126 344.436 218.318 345.348 218.318C345.953 218.318 346.507 218.233 347.01 218.062C347.513 217.892 347.944 217.636 348.301 217.295C348.659 216.955 348.932 216.537 349.12 216.043L354.157 216.375C353.901 217.585 353.377 218.642 352.584 219.545C351.8 220.44 350.786 221.139 349.542 221.642C348.306 222.136 346.878 222.384 345.259 222.384ZM157.66 247.348C157.558 246.317 157.119 245.516 156.344 244.945C155.568 244.374 154.515 244.088 153.186 244.088C152.282 244.088 151.52 244.216 150.898 244.472C150.275 244.719 149.798 245.064 149.466 245.507C149.142 245.95 148.98 246.453 148.98 247.016C148.963 247.484 149.061 247.893 149.274 248.243C149.496 248.592 149.798 248.895 150.182 249.151C150.565 249.398 151.008 249.615 151.511 249.803C152.014 249.982 152.551 250.135 153.122 250.263L155.474 250.825C156.616 251.081 157.665 251.422 158.619 251.848C159.574 252.274 160.4 252.798 161.099 253.42C161.798 254.043 162.339 254.776 162.723 255.619C163.115 256.463 163.315 257.43 163.324 258.521C163.315 260.124 162.906 261.513 162.096 262.689C161.295 263.857 160.136 264.764 158.619 265.412C157.111 266.051 155.291 266.371 153.16 266.371C151.047 266.371 149.206 266.047 147.638 265.399C146.078 264.751 144.859 263.793 143.981 262.523C143.112 261.244 142.656 259.663 142.613 257.78H147.97C148.03 258.658 148.281 259.391 148.724 259.979C149.176 260.558 149.777 260.997 150.527 261.295C151.285 261.585 152.142 261.73 153.096 261.73C154.034 261.73 154.848 261.594 155.538 261.321C156.237 261.048 156.778 260.669 157.162 260.183C157.545 259.697 157.737 259.139 157.737 258.509C157.737 257.92 157.562 257.426 157.213 257.026C156.872 256.625 156.369 256.284 155.704 256.003C155.048 255.722 154.243 255.466 153.288 255.236L150.437 254.52C148.23 253.983 146.487 253.143 145.209 252.001C143.93 250.859 143.295 249.321 143.304 247.386C143.295 245.801 143.717 244.416 144.569 243.232C145.43 242.047 146.611 241.122 148.111 240.457C149.611 239.793 151.315 239.46 153.224 239.46C155.167 239.46 156.863 239.793 158.312 240.457C159.77 241.122 160.903 242.047 161.713 243.232C162.523 244.416 162.94 245.788 162.966 247.348H157.66ZM179.537 257.639V246.364H184.983V266H179.754V262.433H179.55C179.107 263.584 178.369 264.509 177.338 265.207C176.316 265.906 175.067 266.256 173.593 266.256C172.28 266.256 171.125 265.957 170.128 265.361C169.131 264.764 168.351 263.916 167.789 262.817C167.235 261.717 166.953 260.401 166.945 258.866V246.364H172.391V257.895C172.399 259.054 172.71 259.97 173.324 260.643C173.938 261.317 174.76 261.653 175.791 261.653C176.448 261.653 177.061 261.504 177.632 261.206C178.203 260.899 178.664 260.447 179.013 259.851C179.371 259.254 179.546 258.517 179.537 257.639ZM189.339 266V246.364H194.619V249.79H194.824C195.182 248.571 195.782 247.651 196.626 247.028C197.47 246.398 198.442 246.082 199.541 246.082C199.814 246.082 200.108 246.099 200.423 246.134C200.738 246.168 201.015 246.214 201.254 246.274V251.107C200.998 251.03 200.645 250.962 200.193 250.902C199.741 250.842 199.328 250.812 198.953 250.812C198.152 250.812 197.436 250.987 196.805 251.337C196.183 251.678 195.689 252.155 195.322 252.768C194.964 253.382 194.785 254.089 194.785 254.891V266H189.339ZM222.974 246.364L216.109 266H209.973L203.108 246.364H208.861L212.939 260.413H213.143L217.209 246.364H222.974ZM234.077 266.384C232.057 266.384 230.319 265.974 228.861 265.156C227.412 264.33 226.296 263.162 225.512 261.653C224.728 260.136 224.336 258.342 224.336 256.271C224.336 254.251 224.728 252.479 225.512 250.953C226.296 249.428 227.4 248.239 228.823 247.386C230.255 246.534 231.934 246.108 233.86 246.108C235.155 246.108 236.361 246.317 237.478 246.734C238.603 247.143 239.583 247.761 240.418 248.588C241.262 249.415 241.918 250.455 242.387 251.707C242.856 252.952 243.09 254.409 243.09 256.08V257.575H226.509V254.2H237.964C237.964 253.416 237.793 252.722 237.452 252.116C237.111 251.511 236.638 251.038 236.033 250.697C235.437 250.348 234.742 250.173 233.949 250.173C233.123 250.173 232.39 250.365 231.751 250.749C231.12 251.124 230.626 251.631 230.268 252.27C229.91 252.901 229.726 253.604 229.718 254.379V257.588C229.718 258.56 229.897 259.399 230.255 260.107C230.621 260.814 231.137 261.359 231.802 261.743C232.466 262.126 233.255 262.318 234.167 262.318C234.772 262.318 235.326 262.233 235.829 262.062C236.331 261.892 236.762 261.636 237.12 261.295C237.478 260.955 237.751 260.537 237.938 260.043L242.975 260.375C242.719 261.585 242.195 262.642 241.403 263.545C240.618 264.44 239.604 265.139 238.36 265.642C237.124 266.136 235.697 266.384 234.077 266.384ZM246.644 266V246.364H252.09V266H246.644ZM249.38 243.832C248.57 243.832 247.876 243.564 247.296 243.027C246.725 242.482 246.439 241.83 246.439 241.071C246.439 240.321 246.725 239.678 247.296 239.141C247.876 238.595 248.57 238.322 249.38 238.322C250.189 238.322 250.88 238.595 251.451 239.141C252.03 239.678 252.32 240.321 252.32 241.071C252.32 241.83 252.03 242.482 251.451 243.027C250.88 243.564 250.189 243.832 249.38 243.832ZM261.899 239.818V266H256.453V239.818H261.899ZM271.707 239.818V266H266.261V239.818H271.707ZM281.669 266.371C280.416 266.371 279.3 266.153 278.32 265.719C277.34 265.276 276.564 264.624 275.993 263.763C275.431 262.893 275.149 261.811 275.149 260.516C275.149 259.425 275.35 258.509 275.75 257.767C276.151 257.026 276.696 256.429 277.387 255.977C278.077 255.526 278.861 255.185 279.739 254.955C280.625 254.724 281.554 254.562 282.526 254.469C283.668 254.349 284.588 254.239 285.287 254.136C285.986 254.026 286.493 253.864 286.808 253.651C287.124 253.437 287.281 253.122 287.281 252.705V252.628C287.281 251.818 287.026 251.192 286.514 250.749C286.012 250.305 285.296 250.084 284.367 250.084C283.387 250.084 282.607 250.301 282.027 250.736C281.448 251.162 281.064 251.699 280.877 252.347L275.84 251.938C276.095 250.744 276.598 249.713 277.348 248.844C278.098 247.966 279.066 247.293 280.25 246.824C281.443 246.347 282.824 246.108 284.392 246.108C285.483 246.108 286.527 246.236 287.524 246.491C288.53 246.747 289.421 247.143 290.196 247.68C290.98 248.217 291.598 248.908 292.05 249.751C292.502 250.587 292.727 251.588 292.727 252.756V266H287.563V263.277H287.409C287.094 263.891 286.672 264.432 286.144 264.901C285.615 265.361 284.98 265.723 284.239 265.987C283.497 266.243 282.641 266.371 281.669 266.371ZM283.229 262.612C284.03 262.612 284.737 262.455 285.351 262.139C285.965 261.815 286.446 261.381 286.796 260.835C287.145 260.29 287.32 259.672 287.32 258.982V256.898C287.149 257.009 286.915 257.111 286.617 257.205C286.327 257.29 285.999 257.371 285.632 257.447C285.266 257.516 284.899 257.58 284.533 257.639C284.166 257.69 283.834 257.737 283.536 257.78C282.896 257.874 282.338 258.023 281.861 258.227C281.384 258.432 281.013 258.709 280.749 259.058C280.485 259.399 280.352 259.825 280.352 260.337C280.352 261.078 280.621 261.645 281.158 262.037C281.703 262.42 282.394 262.612 283.229 262.612ZM302.399 254.648V266H296.953V246.364H302.143V249.828H302.373C302.808 248.686 303.536 247.783 304.559 247.118C305.582 246.445 306.822 246.108 308.279 246.108C309.643 246.108 310.832 246.406 311.846 247.003C312.86 247.599 313.649 248.452 314.211 249.56C314.774 250.659 315.055 251.972 315.055 253.497V266H309.609V254.469C309.617 253.267 309.311 252.33 308.688 251.656C308.066 250.974 307.21 250.634 306.119 250.634C305.386 250.634 304.738 250.791 304.176 251.107C303.622 251.422 303.187 251.882 302.872 252.487C302.565 253.084 302.407 253.804 302.399 254.648ZM328.219 266.384C326.208 266.384 324.478 265.957 323.029 265.105C321.589 264.244 320.481 263.051 319.705 261.526C318.938 260 318.555 258.244 318.555 256.259C318.555 254.247 318.942 252.483 319.718 250.966C320.502 249.44 321.614 248.251 323.055 247.399C324.495 246.538 326.208 246.108 328.194 246.108C329.907 246.108 331.407 246.419 332.694 247.041C333.981 247.663 334.999 248.537 335.749 249.662C336.499 250.787 336.912 252.108 336.989 253.625H331.85C331.705 252.645 331.322 251.857 330.699 251.26C330.086 250.655 329.28 250.352 328.283 250.352C327.439 250.352 326.702 250.582 326.072 251.043C325.449 251.494 324.964 252.155 324.614 253.024C324.265 253.893 324.09 254.946 324.09 256.182C324.09 257.435 324.26 258.5 324.601 259.378C324.951 260.256 325.441 260.925 326.072 261.385C326.702 261.845 327.439 262.075 328.283 262.075C328.905 262.075 329.464 261.947 329.958 261.692C330.461 261.436 330.874 261.065 331.198 260.58C331.53 260.085 331.748 259.493 331.85 258.803H336.989C336.904 260.303 336.495 261.624 335.762 262.766C335.037 263.899 334.036 264.786 332.758 265.425C331.479 266.064 329.966 266.384 328.219 266.384ZM349.425 266.384C347.405 266.384 345.666 265.974 344.209 265.156C342.76 264.33 341.644 263.162 340.86 261.653C340.075 260.136 339.683 258.342 339.683 256.271C339.683 254.251 340.075 252.479 340.86 250.953C341.644 249.428 342.747 248.239 344.171 247.386C345.602 246.534 347.281 246.108 349.208 246.108C350.503 246.108 351.709 246.317 352.825 246.734C353.95 247.143 354.931 247.761 355.766 248.588C356.61 249.415 357.266 250.455 357.735 251.707C358.203 252.952 358.438 254.409 358.438 256.08V257.575H341.857V254.2H353.311C353.311 253.416 353.141 252.722 352.8 252.116C352.459 251.511 351.986 251.038 351.381 250.697C350.784 250.348 350.09 250.173 349.297 250.173C348.47 250.173 347.737 250.365 347.098 250.749C346.468 251.124 345.973 251.631 345.615 252.27C345.257 252.901 345.074 253.604 345.066 254.379V257.588C345.066 258.56 345.244 259.399 345.602 260.107C345.969 260.814 346.485 261.359 347.149 261.743C347.814 262.126 348.602 262.318 349.514 262.318C350.119 262.318 350.673 262.233 351.176 262.062C351.679 261.892 352.11 261.636 352.468 261.295C352.825 260.955 353.098 260.537 353.286 260.043L358.323 260.375C358.067 261.585 357.543 262.642 356.75 263.545C355.966 264.44 354.952 265.139 353.708 265.642C352.472 266.136 351.044 266.384 349.425 266.384Z" fill="#08FDD8"/>
</g>
<defs>
<clipPath id="clip0_10_4">
<rect width="501" height="468" rx="234" fill="white"/>
</clipPath>
</defs>
</svg>
