<svg id="visual" viewBox="0 0 900 900" width="900" height="900" xmlns="http://www.w3.org/2000/svg" xmlns:xlink="http://www.w3.org/1999/xlink" version="1.1"><path d="M212 0L218.5 18.8C225 37.7 238 75.3 229.7 112.8C221.3 150.3 191.7 187.7 179.7 225.2C167.7 262.7 173.3 300.3 187.2 337.8C201 375.3 223 412.7 217.5 450.2C212 487.7 179 525.3 171 562.8C163 600.3 180 637.7 182.3 675.2C184.7 712.7 172.3 750.3 165.8 787.8C159.3 825.3 158.7 862.7 158.3 881.3L158 900L0 900L0 881.3C0 862.7 0 825.3 0 787.8C0 750.3 0 712.7 0 675.2C0 637.7 0 600.3 0 562.8C0 525.3 0 487.7 0 450.2C0 412.7 0 375.3 0 337.8C0 300.3 0 262.7 0 225.2C0 187.7 0 150.3 0 112.8C0 75.3 0 37.7 0 18.8L0 0Z" fill="#1c1c1c" stroke-linecap="round" stroke-linejoin="miter"></path></svg>